M48
;GenerationSoftware,Autodesk,EAGLE,9.5.2*%
;CreationDate,2020-08-19T13:14:27Z*%
FMAT,2
ICI,OFF
METRIC,TZ,000.000
T5C0.800
T4C1.000
T3C1.016
T2C1.110
T1C1.200
%
G90
M71
T1
X48046Y23791
X45506Y5249
X58714Y5249
X45506Y23791
X48046Y5249
X56174Y5249
X58714Y23791
X56174Y23791
T2
X27880Y26190
X25340Y26190
X22800Y26190
X20260Y26190
X17720Y26190
X15180Y26190
X12640Y26190
X10100Y26190
X10100Y3330
X12640Y3330
X15180Y3330
X17720Y3330
X20260Y3330
X22800Y3330
X25340Y3330
X27880Y3330
T3
X33370Y14720
X35910Y14720
X38450Y14720
X40990Y14720
X3460Y8520
X3460Y11060
X3460Y18740
X3460Y21280
X40030Y5060
X37490Y5060
X40930Y10000
X38390Y10000
X35850Y10000
X33310Y10000
X33360Y20110
X50500Y17540
X35900Y20110
X38440Y20110
X40980Y20110
X50500Y12460
X50500Y15000
T4
X57340Y15260
X63440Y15260
X60440Y10460
T5
X27870Y11060
X10090Y18680
X27870Y16140
X27870Y18680
X10090Y11060
M30