G04 EAGLE Gerber RS-274X export*
G75*
%MOMM*%
%FSLAX34Y34*%
%LPD*%
%INBottom Copper*%
%IPPOS*%
%AMOC8*
5,1,8,0,0,1.08239X$1,22.5*%
G01*
%ADD10C,1.665000*%
%ADD11R,1.665000X1.665000*%
%ADD12C,1.524000*%
%ADD13C,2.000000*%
%ADD14R,1.524000X1.524000*%
%ADD15C,1.308000*%
%ADD16R,1.308000X1.308000*%
%ADD17C,2.000000*%
%ADD18R,2.000000X2.000000*%
%ADD19C,1.016000*%

G36*
X617395Y10170D02*
X617395Y10170D01*
X617449Y10168D01*
X617515Y10189D01*
X617584Y10200D01*
X617632Y10226D01*
X617684Y10242D01*
X617740Y10283D01*
X617801Y10316D01*
X617838Y10355D01*
X617882Y10387D01*
X617923Y10444D01*
X617970Y10494D01*
X617993Y10543D01*
X618025Y10588D01*
X618045Y10654D01*
X618074Y10717D01*
X618080Y10771D01*
X618096Y10823D01*
X618093Y10893D01*
X618101Y10961D01*
X618090Y11015D01*
X618088Y11069D01*
X618064Y11134D01*
X618049Y11202D01*
X618021Y11249D01*
X618002Y11299D01*
X617987Y11320D01*
X614532Y20239D01*
X614532Y29761D01*
X617971Y38640D01*
X624386Y45676D01*
X632909Y49920D01*
X642391Y50799D01*
X651549Y48193D01*
X653619Y46630D01*
X653636Y46621D01*
X653650Y46608D01*
X653745Y46564D01*
X653837Y46515D01*
X653856Y46512D01*
X653873Y46504D01*
X653977Y46493D01*
X654080Y46476D01*
X654099Y46479D01*
X654117Y46477D01*
X654219Y46499D01*
X654322Y46516D01*
X654339Y46525D01*
X654358Y46529D01*
X654447Y46583D01*
X654540Y46632D01*
X654553Y46646D01*
X654569Y46655D01*
X654637Y46735D01*
X654708Y46811D01*
X654716Y46828D01*
X654729Y46842D01*
X654768Y46939D01*
X654812Y47034D01*
X654814Y47053D01*
X654821Y47071D01*
X654839Y47237D01*
X654839Y247763D01*
X654836Y247782D01*
X654838Y247800D01*
X654816Y247903D01*
X654800Y248005D01*
X654791Y248022D01*
X654787Y248041D01*
X654733Y248131D01*
X654684Y248223D01*
X654671Y248236D01*
X654661Y248252D01*
X654582Y248320D01*
X654506Y248392D01*
X654489Y248400D01*
X654474Y248413D01*
X654378Y248452D01*
X654283Y248496D01*
X654264Y248498D01*
X654246Y248505D01*
X654142Y248511D01*
X654039Y248523D01*
X654020Y248519D01*
X654001Y248520D01*
X653900Y248493D01*
X653798Y248471D01*
X653782Y248461D01*
X653763Y248456D01*
X653619Y248370D01*
X651549Y246807D01*
X642391Y244201D01*
X632909Y245080D01*
X624386Y249324D01*
X617971Y256360D01*
X614532Y265239D01*
X614532Y274761D01*
X618000Y283713D01*
X618037Y283771D01*
X618051Y283824D01*
X618074Y283873D01*
X618082Y283942D01*
X618099Y284009D01*
X618095Y284063D01*
X618101Y284117D01*
X618086Y284185D01*
X618081Y284254D01*
X618060Y284304D01*
X618049Y284358D01*
X618013Y284417D01*
X617987Y284481D01*
X617951Y284522D01*
X617923Y284569D01*
X617870Y284614D01*
X617824Y284666D01*
X617777Y284693D01*
X617736Y284729D01*
X617672Y284755D01*
X617612Y284789D01*
X617558Y284800D01*
X617508Y284821D01*
X617400Y284833D01*
X617371Y284839D01*
X617359Y284837D01*
X617341Y284839D01*
X70000Y284839D01*
X69980Y284836D01*
X69961Y284838D01*
X69859Y284816D01*
X69757Y284800D01*
X69740Y284790D01*
X69720Y284786D01*
X69631Y284733D01*
X69540Y284684D01*
X69526Y284670D01*
X69509Y284660D01*
X69442Y284581D01*
X69371Y284506D01*
X69362Y284488D01*
X69349Y284473D01*
X69310Y284377D01*
X69267Y284283D01*
X69265Y284263D01*
X69257Y284245D01*
X69239Y284078D01*
X69239Y250000D01*
X69242Y249978D01*
X69241Y249940D01*
X69487Y246812D01*
X69495Y246780D01*
X69506Y246694D01*
X70239Y243642D01*
X70251Y243612D01*
X70276Y243528D01*
X71477Y240629D01*
X71494Y240601D01*
X71531Y240522D01*
X73171Y237847D01*
X73192Y237822D01*
X73241Y237750D01*
X75279Y235363D01*
X75304Y235342D01*
X75363Y235279D01*
X77750Y233241D01*
X77778Y233224D01*
X77847Y233171D01*
X80091Y231795D01*
X80092Y231795D01*
X80522Y231531D01*
X80553Y231518D01*
X80629Y231477D01*
X83528Y230276D01*
X83561Y230268D01*
X83642Y230239D01*
X86694Y229506D01*
X86727Y229504D01*
X86812Y229487D01*
X89940Y229241D01*
X89962Y229243D01*
X90000Y229239D01*
X189967Y229239D01*
X191604Y229096D01*
X193159Y228679D01*
X194618Y227998D01*
X195937Y227075D01*
X197075Y225937D01*
X197998Y224618D01*
X198679Y223159D01*
X199096Y221604D01*
X199239Y219967D01*
X199239Y80033D01*
X199096Y78396D01*
X198679Y76841D01*
X197998Y75382D01*
X197075Y74063D01*
X195937Y72925D01*
X194618Y72002D01*
X193159Y71321D01*
X191604Y70904D01*
X189967Y70761D01*
X90000Y70761D01*
X89978Y70758D01*
X89940Y70759D01*
X86812Y70513D01*
X86780Y70505D01*
X86694Y70494D01*
X83642Y69761D01*
X83612Y69749D01*
X83528Y69724D01*
X80629Y68523D01*
X80601Y68506D01*
X80522Y68469D01*
X77847Y66829D01*
X77822Y66808D01*
X77750Y66759D01*
X75363Y64721D01*
X75342Y64696D01*
X75279Y64637D01*
X73241Y62250D01*
X73224Y62222D01*
X73171Y62153D01*
X71531Y59478D01*
X71518Y59447D01*
X71477Y59371D01*
X70276Y56472D01*
X70268Y56440D01*
X70239Y56358D01*
X69506Y53306D01*
X69504Y53274D01*
X69487Y53188D01*
X69241Y50060D01*
X69243Y50038D01*
X69239Y50000D01*
X69239Y10922D01*
X69242Y10902D01*
X69240Y10883D01*
X69262Y10781D01*
X69278Y10679D01*
X69288Y10662D01*
X69292Y10642D01*
X69345Y10553D01*
X69394Y10462D01*
X69408Y10448D01*
X69418Y10431D01*
X69497Y10364D01*
X69572Y10292D01*
X69590Y10284D01*
X69605Y10271D01*
X69701Y10232D01*
X69795Y10189D01*
X69815Y10187D01*
X69833Y10179D01*
X70000Y10161D01*
X617341Y10161D01*
X617395Y10170D01*
G37*
%LPC*%
G36*
X571108Y131075D02*
X571108Y131075D01*
X566872Y132830D01*
X563630Y136072D01*
X561875Y140308D01*
X561875Y164892D01*
X563630Y169128D01*
X566872Y172370D01*
X571108Y174125D01*
X575692Y174125D01*
X579928Y172370D01*
X583170Y169128D01*
X584925Y164892D01*
X584925Y140308D01*
X583170Y136072D01*
X579928Y132830D01*
X575692Y131075D01*
X571108Y131075D01*
G37*
%LPD*%
%LPC*%
G36*
X357181Y184335D02*
X357181Y184335D01*
X353820Y185727D01*
X351247Y188300D01*
X349855Y191661D01*
X349855Y210539D01*
X351247Y213900D01*
X353820Y216473D01*
X357181Y217865D01*
X360819Y217865D01*
X364180Y216473D01*
X366753Y213900D01*
X368145Y210539D01*
X368145Y191661D01*
X366753Y188300D01*
X364180Y185727D01*
X360819Y184335D01*
X357181Y184335D01*
G37*
%LPD*%
%LPC*%
G36*
X382581Y184335D02*
X382581Y184335D01*
X379220Y185727D01*
X376647Y188300D01*
X375255Y191661D01*
X375255Y210539D01*
X376647Y213900D01*
X379220Y216473D01*
X382581Y217865D01*
X386219Y217865D01*
X389580Y216473D01*
X392153Y213900D01*
X393545Y210539D01*
X393545Y191661D01*
X392153Y188300D01*
X389580Y185727D01*
X386219Y184335D01*
X382581Y184335D01*
G37*
%LPD*%
%LPC*%
G36*
X495561Y166255D02*
X495561Y166255D01*
X492200Y167647D01*
X489627Y170220D01*
X488235Y173581D01*
X488235Y177219D01*
X489627Y180580D01*
X492200Y183153D01*
X495561Y184545D01*
X514439Y184545D01*
X517800Y183153D01*
X520373Y180580D01*
X521765Y177219D01*
X521765Y173581D01*
X520373Y170220D01*
X517800Y167647D01*
X514439Y166255D01*
X495561Y166255D01*
G37*
%LPD*%
%LPC*%
G36*
X331781Y184335D02*
X331781Y184335D01*
X328420Y185727D01*
X325847Y188300D01*
X324455Y191661D01*
X324455Y210539D01*
X325847Y213900D01*
X328420Y216473D01*
X331781Y217865D01*
X335419Y217865D01*
X338780Y216473D01*
X341353Y213900D01*
X342745Y210539D01*
X342745Y191661D01*
X341353Y188300D01*
X338780Y185727D01*
X335419Y184335D01*
X331781Y184335D01*
G37*
%LPD*%
%LPC*%
G36*
X495561Y140855D02*
X495561Y140855D01*
X492200Y142247D01*
X489627Y144820D01*
X488235Y148181D01*
X488235Y151819D01*
X489627Y155180D01*
X492200Y157753D01*
X495561Y159145D01*
X514439Y159145D01*
X517800Y157753D01*
X520373Y155180D01*
X521765Y151819D01*
X521765Y148181D01*
X520373Y144820D01*
X517800Y142247D01*
X514439Y140855D01*
X495561Y140855D01*
G37*
%LPD*%
%LPC*%
G36*
X373081Y33835D02*
X373081Y33835D01*
X369720Y35227D01*
X367147Y37800D01*
X365755Y41161D01*
X365755Y60039D01*
X367147Y63400D01*
X369720Y65973D01*
X373081Y67365D01*
X376719Y67365D01*
X380080Y65973D01*
X382653Y63400D01*
X384045Y60039D01*
X384045Y41161D01*
X382653Y37800D01*
X380080Y35227D01*
X376719Y33835D01*
X373081Y33835D01*
G37*
%LPD*%
%LPC*%
G36*
X331281Y83235D02*
X331281Y83235D01*
X327920Y84627D01*
X325347Y87200D01*
X323955Y90561D01*
X323955Y109439D01*
X325347Y112800D01*
X327920Y115373D01*
X331281Y116765D01*
X334919Y116765D01*
X338280Y115373D01*
X340853Y112800D01*
X342245Y109439D01*
X342245Y90561D01*
X340853Y87200D01*
X338280Y84627D01*
X334919Y83235D01*
X331281Y83235D01*
G37*
%LPD*%
%LPC*%
G36*
X382081Y83235D02*
X382081Y83235D01*
X378720Y84627D01*
X376147Y87200D01*
X374755Y90561D01*
X374755Y109439D01*
X376147Y112800D01*
X378720Y115373D01*
X382081Y116765D01*
X385719Y116765D01*
X389080Y115373D01*
X391653Y112800D01*
X393045Y109439D01*
X393045Y90561D01*
X391653Y87200D01*
X389080Y84627D01*
X385719Y83235D01*
X382081Y83235D01*
G37*
%LPD*%
%LPC*%
G36*
X356681Y83235D02*
X356681Y83235D01*
X353320Y84627D01*
X350747Y87200D01*
X349355Y90561D01*
X349355Y109439D01*
X350747Y112800D01*
X353320Y115373D01*
X356681Y116765D01*
X360319Y116765D01*
X363680Y115373D01*
X366253Y112800D01*
X367645Y109439D01*
X367645Y90561D01*
X366253Y87200D01*
X363680Y84627D01*
X360319Y83235D01*
X356681Y83235D01*
G37*
%LPD*%
%LPC*%
G36*
X382681Y130435D02*
X382681Y130435D01*
X379320Y131827D01*
X376747Y134400D01*
X375355Y137761D01*
X375355Y156639D01*
X376747Y160000D01*
X379320Y162573D01*
X382681Y163965D01*
X386319Y163965D01*
X389680Y162573D01*
X392253Y160000D01*
X393645Y156639D01*
X393645Y137761D01*
X392253Y134400D01*
X389680Y131827D01*
X386319Y130435D01*
X382681Y130435D01*
G37*
%LPD*%
%LPC*%
G36*
X357281Y130435D02*
X357281Y130435D01*
X353920Y131827D01*
X351347Y134400D01*
X349955Y137761D01*
X349955Y156639D01*
X351347Y160000D01*
X353920Y162573D01*
X357281Y163965D01*
X360919Y163965D01*
X364280Y162573D01*
X366853Y160000D01*
X368245Y156639D01*
X368245Y137761D01*
X366853Y134400D01*
X364280Y131827D01*
X360919Y130435D01*
X357281Y130435D01*
G37*
%LPD*%
%LPC*%
G36*
X331881Y130435D02*
X331881Y130435D01*
X328520Y131827D01*
X325947Y134400D01*
X324555Y137761D01*
X324555Y156639D01*
X325947Y160000D01*
X328520Y162573D01*
X331881Y163965D01*
X335519Y163965D01*
X338880Y162573D01*
X341453Y160000D01*
X342845Y156639D01*
X342845Y137761D01*
X341453Y134400D01*
X338880Y131827D01*
X335519Y130435D01*
X331881Y130435D01*
G37*
%LPD*%
%LPC*%
G36*
X576508Y226385D02*
X576508Y226385D01*
X575615Y227278D01*
X575615Y248542D01*
X576508Y249435D01*
X597772Y249435D01*
X598665Y248542D01*
X598665Y227278D01*
X597772Y226385D01*
X576508Y226385D01*
G37*
%LPD*%
%LPC*%
G36*
X551108Y40965D02*
X551108Y40965D01*
X550215Y41858D01*
X550215Y63122D01*
X551108Y64015D01*
X572372Y64015D01*
X573265Y63122D01*
X573265Y41858D01*
X572372Y40965D01*
X551108Y40965D01*
G37*
%LPD*%
%LPC*%
G36*
X576508Y40965D02*
X576508Y40965D01*
X575615Y41858D01*
X575615Y63122D01*
X576508Y64015D01*
X597772Y64015D01*
X598665Y63122D01*
X598665Y41858D01*
X597772Y40965D01*
X576508Y40965D01*
G37*
%LPD*%
%LPC*%
G36*
X551108Y226385D02*
X551108Y226385D01*
X550215Y227278D01*
X550215Y248542D01*
X551108Y249435D01*
X572372Y249435D01*
X573265Y248542D01*
X573265Y227278D01*
X572372Y226385D01*
X551108Y226385D01*
G37*
%LPD*%
%LPC*%
G36*
X92043Y252050D02*
X92043Y252050D01*
X91150Y252943D01*
X91150Y270857D01*
X92043Y271750D01*
X109957Y271750D01*
X110850Y270857D01*
X110850Y252943D01*
X109957Y252050D01*
X92043Y252050D01*
G37*
%LPD*%
%LPC*%
G36*
X92043Y23450D02*
X92043Y23450D01*
X91150Y24343D01*
X91150Y42257D01*
X92043Y43150D01*
X109957Y43150D01*
X110850Y42257D01*
X110850Y24343D01*
X109957Y23450D01*
X92043Y23450D01*
G37*
%LPD*%
%LPC*%
G36*
X251441Y23450D02*
X251441Y23450D01*
X247821Y24950D01*
X245050Y27721D01*
X243550Y31341D01*
X243550Y35259D01*
X245050Y38879D01*
X247821Y41650D01*
X251441Y43150D01*
X255359Y43150D01*
X258979Y41650D01*
X261750Y38879D01*
X263250Y35259D01*
X263250Y31341D01*
X261750Y27721D01*
X258979Y24950D01*
X255359Y23450D01*
X251441Y23450D01*
G37*
%LPD*%
%LPC*%
G36*
X226041Y252050D02*
X226041Y252050D01*
X222421Y253550D01*
X219650Y256321D01*
X218150Y259941D01*
X218150Y263859D01*
X219650Y267479D01*
X222421Y270250D01*
X226041Y271750D01*
X229959Y271750D01*
X233579Y270250D01*
X236350Y267479D01*
X237850Y263859D01*
X237850Y259941D01*
X236350Y256321D01*
X233579Y253550D01*
X229959Y252050D01*
X226041Y252050D01*
G37*
%LPD*%
%LPC*%
G36*
X200641Y252050D02*
X200641Y252050D01*
X197021Y253550D01*
X194250Y256321D01*
X192750Y259941D01*
X192750Y263859D01*
X194250Y267479D01*
X197021Y270250D01*
X200641Y271750D01*
X204559Y271750D01*
X208179Y270250D01*
X210950Y267479D01*
X212450Y263859D01*
X212450Y259941D01*
X210950Y256321D01*
X208179Y253550D01*
X204559Y252050D01*
X200641Y252050D01*
G37*
%LPD*%
%LPC*%
G36*
X276841Y252050D02*
X276841Y252050D01*
X273221Y253550D01*
X270450Y256321D01*
X268950Y259941D01*
X268950Y263859D01*
X270450Y267479D01*
X273221Y270250D01*
X276841Y271750D01*
X280759Y271750D01*
X284379Y270250D01*
X287150Y267479D01*
X288650Y263859D01*
X288650Y259941D01*
X287150Y256321D01*
X284379Y253550D01*
X280759Y252050D01*
X276841Y252050D01*
G37*
%LPD*%
%LPC*%
G36*
X251441Y252050D02*
X251441Y252050D01*
X247821Y253550D01*
X245050Y256321D01*
X243550Y259941D01*
X243550Y263859D01*
X245050Y267479D01*
X247821Y270250D01*
X251441Y271750D01*
X255359Y271750D01*
X258979Y270250D01*
X261750Y267479D01*
X263250Y263859D01*
X263250Y259941D01*
X261750Y256321D01*
X258979Y253550D01*
X255359Y252050D01*
X251441Y252050D01*
G37*
%LPD*%
%LPC*%
G36*
X175241Y252050D02*
X175241Y252050D01*
X171621Y253550D01*
X168850Y256321D01*
X167350Y259941D01*
X167350Y263859D01*
X168850Y267479D01*
X171621Y270250D01*
X175241Y271750D01*
X179159Y271750D01*
X182779Y270250D01*
X185550Y267479D01*
X187050Y263859D01*
X187050Y259941D01*
X185550Y256321D01*
X182779Y253550D01*
X179159Y252050D01*
X175241Y252050D01*
G37*
%LPD*%
%LPC*%
G36*
X149841Y252050D02*
X149841Y252050D01*
X146221Y253550D01*
X143450Y256321D01*
X141950Y259941D01*
X141950Y263859D01*
X143450Y267479D01*
X146221Y270250D01*
X149841Y271750D01*
X153759Y271750D01*
X157379Y270250D01*
X160150Y267479D01*
X161650Y263859D01*
X161650Y259941D01*
X160150Y256321D01*
X157379Y253550D01*
X153759Y252050D01*
X149841Y252050D01*
G37*
%LPD*%
%LPC*%
G36*
X124441Y23450D02*
X124441Y23450D01*
X120821Y24950D01*
X118050Y27721D01*
X116550Y31341D01*
X116550Y35259D01*
X118050Y38879D01*
X120821Y41650D01*
X124441Y43150D01*
X128359Y43150D01*
X131979Y41650D01*
X134750Y38879D01*
X136250Y35259D01*
X136250Y31341D01*
X134750Y27721D01*
X131979Y24950D01*
X128359Y23450D01*
X124441Y23450D01*
G37*
%LPD*%
%LPC*%
G36*
X149841Y23450D02*
X149841Y23450D01*
X146221Y24950D01*
X143450Y27721D01*
X141950Y31341D01*
X141950Y35259D01*
X143450Y38879D01*
X146221Y41650D01*
X149841Y43150D01*
X153759Y43150D01*
X157379Y41650D01*
X160150Y38879D01*
X161650Y35259D01*
X161650Y31341D01*
X160150Y27721D01*
X157379Y24950D01*
X153759Y23450D01*
X149841Y23450D01*
G37*
%LPD*%
%LPC*%
G36*
X200641Y23450D02*
X200641Y23450D01*
X197021Y24950D01*
X194250Y27721D01*
X192750Y31341D01*
X192750Y35259D01*
X194250Y38879D01*
X197021Y41650D01*
X200641Y43150D01*
X204559Y43150D01*
X208179Y41650D01*
X210950Y38879D01*
X212450Y35259D01*
X212450Y31341D01*
X210950Y27721D01*
X208179Y24950D01*
X204559Y23450D01*
X200641Y23450D01*
G37*
%LPD*%
%LPC*%
G36*
X226041Y23450D02*
X226041Y23450D01*
X222421Y24950D01*
X219650Y27721D01*
X218150Y31341D01*
X218150Y35259D01*
X219650Y38879D01*
X222421Y41650D01*
X226041Y43150D01*
X229959Y43150D01*
X233579Y41650D01*
X236350Y38879D01*
X237850Y35259D01*
X237850Y31341D01*
X236350Y27721D01*
X233579Y24950D01*
X229959Y23450D01*
X226041Y23450D01*
G37*
%LPD*%
%LPC*%
G36*
X271528Y102535D02*
X271528Y102535D01*
X270635Y103428D01*
X270635Y117772D01*
X271528Y118665D01*
X285872Y118665D01*
X286765Y117772D01*
X286765Y103428D01*
X285872Y102535D01*
X271528Y102535D01*
G37*
%LPD*%
%LPC*%
G36*
X277096Y153335D02*
X277096Y153335D01*
X274132Y154563D01*
X271863Y156832D01*
X270635Y159796D01*
X270635Y163004D01*
X271863Y165968D01*
X274132Y168237D01*
X277096Y169465D01*
X280304Y169465D01*
X283268Y168237D01*
X285537Y165968D01*
X286765Y163004D01*
X286765Y159796D01*
X285537Y156832D01*
X283268Y154563D01*
X280304Y153335D01*
X277096Y153335D01*
G37*
%LPD*%
%LPC*%
G36*
X605923Y106123D02*
X605923Y106123D01*
X605923Y117141D01*
X615387Y117141D01*
X617337Y116832D01*
X619214Y116222D01*
X620973Y115326D01*
X622570Y114166D01*
X623966Y112770D01*
X625126Y111173D01*
X626022Y109414D01*
X626632Y107537D01*
X626856Y106123D01*
X605923Y106123D01*
G37*
%LPD*%
%LPC*%
G36*
X635923Y154123D02*
X635923Y154123D01*
X635923Y175056D01*
X637337Y174832D01*
X639214Y174222D01*
X640973Y173326D01*
X642570Y172166D01*
X643966Y170770D01*
X645126Y169173D01*
X646022Y167414D01*
X646632Y165537D01*
X646941Y163587D01*
X646941Y154123D01*
X635923Y154123D01*
G37*
%LPD*%
%LPC*%
G36*
X635923Y151077D02*
X635923Y151077D01*
X646941Y151077D01*
X646941Y141613D01*
X646632Y139663D01*
X646022Y137786D01*
X645126Y136027D01*
X643966Y134430D01*
X642570Y133034D01*
X640973Y131874D01*
X639214Y130978D01*
X637337Y130368D01*
X635923Y130144D01*
X635923Y151077D01*
G37*
%LPD*%
%LPC*%
G36*
X581944Y106123D02*
X581944Y106123D01*
X582168Y107537D01*
X582778Y109414D01*
X583674Y111173D01*
X584834Y112770D01*
X586230Y114166D01*
X587827Y115326D01*
X589586Y116222D01*
X591463Y116832D01*
X593413Y117141D01*
X602877Y117141D01*
X602877Y106123D01*
X581944Y106123D01*
G37*
%LPD*%
%LPC*%
G36*
X605923Y92059D02*
X605923Y92059D01*
X605923Y103077D01*
X626856Y103077D01*
X626632Y101663D01*
X626022Y99786D01*
X625126Y98027D01*
X623966Y96430D01*
X622570Y95034D01*
X620973Y93874D01*
X619214Y92978D01*
X617337Y92368D01*
X615387Y92059D01*
X605923Y92059D01*
G37*
%LPD*%
%LPC*%
G36*
X621859Y154123D02*
X621859Y154123D01*
X621859Y163587D01*
X622168Y165537D01*
X622778Y167414D01*
X623674Y169173D01*
X624834Y170770D01*
X626230Y172166D01*
X627827Y173326D01*
X629586Y174222D01*
X631463Y174832D01*
X632877Y175056D01*
X632877Y154123D01*
X621859Y154123D01*
G37*
%LPD*%
%LPC*%
G36*
X631463Y130368D02*
X631463Y130368D01*
X629586Y130978D01*
X627827Y131874D01*
X626230Y133034D01*
X624834Y134430D01*
X623674Y136027D01*
X622778Y137786D01*
X622168Y139663D01*
X621859Y141613D01*
X621859Y151077D01*
X632877Y151077D01*
X632877Y130144D01*
X631463Y130368D01*
G37*
%LPD*%
%LPC*%
G36*
X593413Y92059D02*
X593413Y92059D01*
X591463Y92368D01*
X589586Y92978D01*
X587827Y93874D01*
X586230Y95034D01*
X584834Y96430D01*
X583674Y98027D01*
X582778Y99786D01*
X582168Y101663D01*
X581944Y103077D01*
X602877Y103077D01*
X602877Y92059D01*
X593413Y92059D01*
G37*
%LPD*%
%LPC*%
G36*
X456583Y54013D02*
X456583Y54013D01*
X456583Y64946D01*
X457997Y64722D01*
X459874Y64112D01*
X461633Y63216D01*
X463230Y62056D01*
X464626Y60660D01*
X465786Y59063D01*
X466682Y57304D01*
X467036Y56214D01*
X467040Y56207D01*
X467041Y56199D01*
X467096Y56098D01*
X467149Y55996D01*
X467154Y55990D01*
X467158Y55983D01*
X467243Y55904D01*
X467325Y55825D01*
X467333Y55821D01*
X467338Y55816D01*
X467443Y55768D01*
X467547Y55719D01*
X467555Y55718D01*
X467563Y55714D01*
X467677Y55703D01*
X467792Y55689D01*
X467799Y55691D01*
X467807Y55690D01*
X467920Y55716D01*
X468032Y55739D01*
X468039Y55743D01*
X468047Y55744D01*
X468146Y55805D01*
X468245Y55863D01*
X468250Y55869D01*
X468257Y55873D01*
X468332Y55962D01*
X468407Y56048D01*
X468410Y56055D01*
X468415Y56061D01*
X468484Y56214D01*
X468838Y57304D01*
X469734Y59063D01*
X470894Y60660D01*
X472290Y62056D01*
X473887Y63216D01*
X475646Y64112D01*
X477523Y64722D01*
X478937Y64946D01*
X478937Y54013D01*
X456583Y54013D01*
G37*
%LPD*%
%LPC*%
G36*
X456583Y239433D02*
X456583Y239433D01*
X456583Y250366D01*
X457997Y250142D01*
X459874Y249532D01*
X461633Y248636D01*
X463230Y247476D01*
X464626Y246080D01*
X465786Y244483D01*
X466682Y242724D01*
X467036Y241634D01*
X467040Y241627D01*
X467041Y241619D01*
X467096Y241518D01*
X467149Y241416D01*
X467154Y241410D01*
X467158Y241403D01*
X467243Y241324D01*
X467325Y241245D01*
X467333Y241241D01*
X467338Y241236D01*
X467443Y241188D01*
X467547Y241139D01*
X467555Y241138D01*
X467563Y241134D01*
X467677Y241123D01*
X467792Y241109D01*
X467799Y241111D01*
X467807Y241110D01*
X467920Y241136D01*
X468032Y241159D01*
X468039Y241163D01*
X468047Y241164D01*
X468146Y241225D01*
X468245Y241283D01*
X468250Y241289D01*
X468257Y241293D01*
X468332Y241382D01*
X468407Y241468D01*
X468410Y241475D01*
X468415Y241481D01*
X468484Y241634D01*
X468838Y242724D01*
X469734Y244483D01*
X470894Y246080D01*
X472290Y247476D01*
X473887Y248636D01*
X475646Y249532D01*
X477523Y250142D01*
X478937Y250366D01*
X478937Y239433D01*
X456583Y239433D01*
G37*
%LPD*%
%LPC*%
G36*
X477523Y225678D02*
X477523Y225678D01*
X475646Y226288D01*
X473887Y227184D01*
X472290Y228344D01*
X470894Y229740D01*
X469734Y231337D01*
X468838Y233096D01*
X468484Y234186D01*
X468480Y234193D01*
X468479Y234201D01*
X468424Y234301D01*
X468371Y234404D01*
X468365Y234410D01*
X468362Y234417D01*
X468277Y234495D01*
X468195Y234576D01*
X468187Y234579D01*
X468181Y234584D01*
X468077Y234632D01*
X467973Y234681D01*
X467965Y234682D01*
X467957Y234686D01*
X467843Y234697D01*
X467728Y234711D01*
X467721Y234709D01*
X467713Y234710D01*
X467600Y234685D01*
X467488Y234661D01*
X467481Y234657D01*
X467473Y234655D01*
X467375Y234596D01*
X467275Y234537D01*
X467270Y234531D01*
X467263Y234527D01*
X467189Y234439D01*
X467113Y234352D01*
X467110Y234345D01*
X467105Y234339D01*
X467036Y234186D01*
X466682Y233096D01*
X465786Y231337D01*
X464626Y229740D01*
X463230Y228344D01*
X461633Y227184D01*
X459874Y226288D01*
X457997Y225678D01*
X456583Y225454D01*
X456583Y236387D01*
X478937Y236387D01*
X478937Y225454D01*
X477523Y225678D01*
G37*
%LPD*%
%LPC*%
G36*
X477523Y40258D02*
X477523Y40258D01*
X475646Y40868D01*
X473887Y41764D01*
X472290Y42924D01*
X470894Y44320D01*
X469734Y45917D01*
X468838Y47676D01*
X468484Y48766D01*
X468480Y48773D01*
X468479Y48781D01*
X468424Y48881D01*
X468371Y48984D01*
X468365Y48990D01*
X468362Y48997D01*
X468277Y49075D01*
X468195Y49156D01*
X468187Y49159D01*
X468181Y49164D01*
X468077Y49212D01*
X467973Y49261D01*
X467965Y49262D01*
X467957Y49266D01*
X467843Y49277D01*
X467728Y49291D01*
X467721Y49289D01*
X467713Y49290D01*
X467600Y49265D01*
X467488Y49241D01*
X467481Y49237D01*
X467473Y49235D01*
X467375Y49176D01*
X467275Y49117D01*
X467270Y49111D01*
X467263Y49107D01*
X467189Y49019D01*
X467113Y48932D01*
X467110Y48925D01*
X467105Y48919D01*
X467036Y48766D01*
X466682Y47676D01*
X465786Y45917D01*
X464626Y44320D01*
X463230Y42924D01*
X461633Y41764D01*
X459874Y40868D01*
X457997Y40258D01*
X456583Y40034D01*
X456583Y50967D01*
X478937Y50967D01*
X478937Y40034D01*
X477523Y40258D01*
G37*
%LPD*%
%LPC*%
G36*
X411323Y202623D02*
X411323Y202623D01*
X411323Y218766D01*
X412179Y218631D01*
X413700Y218136D01*
X415125Y217410D01*
X416419Y216470D01*
X417550Y215339D01*
X418490Y214045D01*
X419216Y212620D01*
X419711Y211099D01*
X419961Y209520D01*
X419961Y202623D01*
X411323Y202623D01*
G37*
%LPD*%
%LPC*%
G36*
X401823Y52123D02*
X401823Y52123D01*
X401823Y68266D01*
X402679Y68131D01*
X404200Y67636D01*
X405625Y66910D01*
X406919Y65970D01*
X408050Y64839D01*
X408990Y63545D01*
X409716Y62120D01*
X410211Y60599D01*
X410461Y59020D01*
X410461Y52123D01*
X401823Y52123D01*
G37*
%LPD*%
%LPC*%
G36*
X410823Y101523D02*
X410823Y101523D01*
X410823Y117666D01*
X411679Y117531D01*
X413200Y117036D01*
X414625Y116310D01*
X415919Y115370D01*
X417050Y114239D01*
X417990Y112945D01*
X418716Y111520D01*
X419211Y109999D01*
X419461Y108420D01*
X419461Y101523D01*
X410823Y101523D01*
G37*
%LPD*%
%LPC*%
G36*
X411423Y148723D02*
X411423Y148723D01*
X411423Y164866D01*
X412279Y164731D01*
X413800Y164236D01*
X415225Y163510D01*
X416519Y162570D01*
X417650Y161439D01*
X418590Y160145D01*
X419316Y158720D01*
X419811Y157199D01*
X420061Y155620D01*
X420061Y148723D01*
X411423Y148723D01*
G37*
%LPD*%
%LPC*%
G36*
X506523Y126123D02*
X506523Y126123D01*
X506523Y134761D01*
X513420Y134761D01*
X514999Y134511D01*
X516520Y134016D01*
X517945Y133290D01*
X519239Y132350D01*
X520370Y131219D01*
X521310Y129925D01*
X522036Y128500D01*
X522531Y126979D01*
X522666Y126123D01*
X506523Y126123D01*
G37*
%LPD*%
%LPC*%
G36*
X487334Y126123D02*
X487334Y126123D01*
X487469Y126979D01*
X487964Y128500D01*
X488690Y129925D01*
X489630Y131219D01*
X490761Y132350D01*
X492055Y133290D01*
X493480Y134016D01*
X495001Y134511D01*
X496580Y134761D01*
X503477Y134761D01*
X503477Y126123D01*
X487334Y126123D01*
G37*
%LPD*%
%LPC*%
G36*
X410823Y98477D02*
X410823Y98477D01*
X419461Y98477D01*
X419461Y91580D01*
X419211Y90001D01*
X418716Y88480D01*
X417990Y87055D01*
X417050Y85761D01*
X415919Y84630D01*
X414625Y83690D01*
X413200Y82964D01*
X411679Y82469D01*
X410823Y82334D01*
X410823Y98477D01*
G37*
%LPD*%
%LPC*%
G36*
X411423Y145677D02*
X411423Y145677D01*
X420061Y145677D01*
X420061Y138780D01*
X419811Y137201D01*
X419316Y135680D01*
X418590Y134255D01*
X417650Y132961D01*
X416519Y131830D01*
X415225Y130890D01*
X413800Y130164D01*
X412279Y129669D01*
X411423Y129534D01*
X411423Y145677D01*
G37*
%LPD*%
%LPC*%
G36*
X411323Y199577D02*
X411323Y199577D01*
X419961Y199577D01*
X419961Y192680D01*
X419711Y191101D01*
X419216Y189580D01*
X418490Y188155D01*
X417550Y186861D01*
X416419Y185730D01*
X415125Y184790D01*
X413700Y184064D01*
X412179Y183569D01*
X411323Y183434D01*
X411323Y199577D01*
G37*
%LPD*%
%LPC*%
G36*
X401823Y49077D02*
X401823Y49077D01*
X410461Y49077D01*
X410461Y42180D01*
X410211Y40601D01*
X409716Y39080D01*
X408990Y37655D01*
X408050Y36361D01*
X406919Y35230D01*
X405625Y34290D01*
X404200Y33564D01*
X402679Y33069D01*
X401823Y32934D01*
X401823Y49077D01*
G37*
%LPD*%
%LPC*%
G36*
X390139Y52123D02*
X390139Y52123D01*
X390139Y59020D01*
X390389Y60599D01*
X390884Y62120D01*
X391610Y63545D01*
X392550Y64839D01*
X393681Y65970D01*
X394975Y66910D01*
X396400Y67636D01*
X397921Y68131D01*
X398777Y68266D01*
X398777Y52123D01*
X390139Y52123D01*
G37*
%LPD*%
%LPC*%
G36*
X399739Y148723D02*
X399739Y148723D01*
X399739Y155620D01*
X399989Y157199D01*
X400484Y158720D01*
X401210Y160145D01*
X402150Y161439D01*
X403281Y162570D01*
X404575Y163510D01*
X406000Y164236D01*
X407521Y164731D01*
X408377Y164866D01*
X408377Y148723D01*
X399739Y148723D01*
G37*
%LPD*%
%LPC*%
G36*
X506523Y114439D02*
X506523Y114439D01*
X506523Y123077D01*
X522666Y123077D01*
X522531Y122221D01*
X522036Y120700D01*
X521310Y119275D01*
X520370Y117981D01*
X519239Y116850D01*
X517945Y115910D01*
X516520Y115184D01*
X514999Y114689D01*
X513420Y114439D01*
X506523Y114439D01*
G37*
%LPD*%
%LPC*%
G36*
X399139Y101523D02*
X399139Y101523D01*
X399139Y108420D01*
X399389Y109999D01*
X399884Y111520D01*
X400610Y112945D01*
X401550Y114239D01*
X402681Y115370D01*
X403975Y116310D01*
X405400Y117036D01*
X406921Y117531D01*
X407777Y117666D01*
X407777Y101523D01*
X399139Y101523D01*
G37*
%LPD*%
%LPC*%
G36*
X399639Y202623D02*
X399639Y202623D01*
X399639Y209520D01*
X399889Y211099D01*
X400384Y212620D01*
X401110Y214045D01*
X402050Y215339D01*
X403181Y216470D01*
X404475Y217410D01*
X405900Y218136D01*
X407421Y218631D01*
X408277Y218766D01*
X408277Y202623D01*
X399639Y202623D01*
G37*
%LPD*%
%LPC*%
G36*
X406921Y82469D02*
X406921Y82469D01*
X405400Y82964D01*
X403975Y83690D01*
X402681Y84630D01*
X401550Y85761D01*
X400610Y87055D01*
X399884Y88480D01*
X399389Y90001D01*
X399139Y91580D01*
X399139Y98477D01*
X407777Y98477D01*
X407777Y82334D01*
X406921Y82469D01*
G37*
%LPD*%
%LPC*%
G36*
X496580Y114439D02*
X496580Y114439D01*
X495001Y114689D01*
X493480Y115184D01*
X492055Y115910D01*
X490761Y116850D01*
X489630Y117981D01*
X488690Y119275D01*
X487964Y120700D01*
X487469Y122221D01*
X487334Y123077D01*
X503477Y123077D01*
X503477Y114439D01*
X496580Y114439D01*
G37*
%LPD*%
%LPC*%
G36*
X407521Y129669D02*
X407521Y129669D01*
X406000Y130164D01*
X404575Y130890D01*
X403281Y131830D01*
X402150Y132961D01*
X401210Y134255D01*
X400484Y135680D01*
X399989Y137201D01*
X399739Y138780D01*
X399739Y145677D01*
X408377Y145677D01*
X408377Y129534D01*
X407521Y129669D01*
G37*
%LPD*%
%LPC*%
G36*
X407421Y183569D02*
X407421Y183569D01*
X405900Y184064D01*
X404475Y184790D01*
X403181Y185730D01*
X402050Y186861D01*
X401110Y188155D01*
X400384Y189580D01*
X399889Y191101D01*
X399639Y192680D01*
X399639Y199577D01*
X408277Y199577D01*
X408277Y183434D01*
X407421Y183569D01*
G37*
%LPD*%
%LPC*%
G36*
X397921Y33069D02*
X397921Y33069D01*
X396400Y33564D01*
X394975Y34290D01*
X393681Y35230D01*
X392550Y36361D01*
X391610Y37655D01*
X390884Y39080D01*
X390389Y40601D01*
X390139Y42180D01*
X390139Y49077D01*
X398777Y49077D01*
X398777Y32934D01*
X397921Y33069D01*
G37*
%LPD*%
%LPC*%
G36*
X481983Y54013D02*
X481983Y54013D01*
X481983Y64946D01*
X483397Y64722D01*
X485274Y64112D01*
X487033Y63216D01*
X488630Y62056D01*
X490026Y60660D01*
X491186Y59063D01*
X492082Y57304D01*
X492692Y55427D01*
X492916Y54013D01*
X481983Y54013D01*
G37*
%LPD*%
%LPC*%
G36*
X481983Y239433D02*
X481983Y239433D01*
X481983Y250366D01*
X483397Y250142D01*
X485274Y249532D01*
X487033Y248636D01*
X488630Y247476D01*
X490026Y246080D01*
X491186Y244483D01*
X492082Y242724D01*
X492692Y240847D01*
X492916Y239433D01*
X481983Y239433D01*
G37*
%LPD*%
%LPC*%
G36*
X481983Y236387D02*
X481983Y236387D01*
X492916Y236387D01*
X492692Y234973D01*
X492082Y233096D01*
X491186Y231337D01*
X490026Y229740D01*
X488630Y228344D01*
X487033Y227184D01*
X485274Y226288D01*
X483397Y225678D01*
X481983Y225454D01*
X481983Y236387D01*
G37*
%LPD*%
%LPC*%
G36*
X442604Y54013D02*
X442604Y54013D01*
X442828Y55427D01*
X443438Y57304D01*
X444334Y59063D01*
X445494Y60660D01*
X446890Y62056D01*
X448487Y63216D01*
X450246Y64112D01*
X452123Y64722D01*
X453537Y64946D01*
X453537Y54013D01*
X442604Y54013D01*
G37*
%LPD*%
%LPC*%
G36*
X481983Y50967D02*
X481983Y50967D01*
X492916Y50967D01*
X492692Y49553D01*
X492082Y47676D01*
X491186Y45917D01*
X490026Y44320D01*
X488630Y42924D01*
X487033Y41764D01*
X485274Y40868D01*
X483397Y40258D01*
X481983Y40034D01*
X481983Y50967D01*
G37*
%LPD*%
%LPC*%
G36*
X442604Y239433D02*
X442604Y239433D01*
X442828Y240847D01*
X443438Y242724D01*
X444334Y244483D01*
X445494Y246080D01*
X446890Y247476D01*
X448487Y248636D01*
X450246Y249532D01*
X452123Y250142D01*
X453537Y250366D01*
X453537Y239433D01*
X442604Y239433D01*
G37*
%LPD*%
%LPC*%
G36*
X452123Y225678D02*
X452123Y225678D01*
X450246Y226288D01*
X448487Y227184D01*
X446890Y228344D01*
X445494Y229740D01*
X444334Y231337D01*
X443438Y233096D01*
X442828Y234973D01*
X442604Y236387D01*
X453537Y236387D01*
X453537Y225454D01*
X452123Y225678D01*
G37*
%LPD*%
%LPC*%
G36*
X452123Y40258D02*
X452123Y40258D01*
X450246Y40868D01*
X448487Y41764D01*
X446890Y42924D01*
X445494Y44320D01*
X444334Y45917D01*
X443438Y47676D01*
X442828Y49553D01*
X442604Y50967D01*
X453537Y50967D01*
X453537Y40034D01*
X452123Y40258D01*
G37*
%LPD*%
%LPC*%
G36*
X280323Y34823D02*
X280323Y34823D01*
X280323Y44060D01*
X281344Y43898D01*
X282971Y43370D01*
X284495Y42593D01*
X285879Y41588D01*
X287088Y40379D01*
X288093Y38995D01*
X288870Y37471D01*
X289398Y35844D01*
X289560Y34823D01*
X280323Y34823D01*
G37*
%LPD*%
%LPC*%
G36*
X127923Y263423D02*
X127923Y263423D01*
X127923Y272660D01*
X128944Y272498D01*
X130571Y271970D01*
X132095Y271193D01*
X133479Y270188D01*
X134688Y268979D01*
X135693Y267595D01*
X136470Y266071D01*
X136998Y264444D01*
X137160Y263423D01*
X127923Y263423D01*
G37*
%LPD*%
%LPC*%
G36*
X178723Y34823D02*
X178723Y34823D01*
X178723Y44060D01*
X179744Y43898D01*
X181371Y43370D01*
X182895Y42593D01*
X184279Y41588D01*
X185488Y40379D01*
X186493Y38995D01*
X187270Y37471D01*
X187798Y35844D01*
X187960Y34823D01*
X178723Y34823D01*
G37*
%LPD*%
%LPC*%
G36*
X115640Y263423D02*
X115640Y263423D01*
X115802Y264444D01*
X116330Y266071D01*
X117107Y267595D01*
X118112Y268979D01*
X119321Y270188D01*
X120705Y271193D01*
X122229Y271970D01*
X123856Y272498D01*
X124877Y272660D01*
X124877Y263423D01*
X115640Y263423D01*
G37*
%LPD*%
%LPC*%
G36*
X166440Y34823D02*
X166440Y34823D01*
X166602Y35844D01*
X167130Y37471D01*
X167907Y38995D01*
X168912Y40379D01*
X170121Y41588D01*
X171505Y42593D01*
X173029Y43370D01*
X174656Y43898D01*
X175677Y44060D01*
X175677Y34823D01*
X166440Y34823D01*
G37*
%LPD*%
%LPC*%
G36*
X268040Y34823D02*
X268040Y34823D01*
X268202Y35844D01*
X268730Y37471D01*
X269507Y38995D01*
X270512Y40379D01*
X271721Y41588D01*
X273105Y42593D01*
X274629Y43370D01*
X276256Y43898D01*
X277277Y44060D01*
X277277Y34823D01*
X268040Y34823D01*
G37*
%LPD*%
%LPC*%
G36*
X127923Y260377D02*
X127923Y260377D01*
X137160Y260377D01*
X136998Y259356D01*
X136470Y257729D01*
X135693Y256205D01*
X134688Y254821D01*
X133479Y253612D01*
X132095Y252607D01*
X130571Y251830D01*
X128944Y251302D01*
X127923Y251140D01*
X127923Y260377D01*
G37*
%LPD*%
%LPC*%
G36*
X280323Y31777D02*
X280323Y31777D01*
X289560Y31777D01*
X289398Y30756D01*
X288870Y29129D01*
X288093Y27605D01*
X287088Y26221D01*
X285879Y25012D01*
X284495Y24007D01*
X282971Y23230D01*
X281344Y22702D01*
X280323Y22540D01*
X280323Y31777D01*
G37*
%LPD*%
%LPC*%
G36*
X178723Y31777D02*
X178723Y31777D01*
X187960Y31777D01*
X187798Y30756D01*
X187270Y29129D01*
X186493Y27605D01*
X185488Y26221D01*
X184279Y25012D01*
X182895Y24007D01*
X181371Y23230D01*
X179744Y22702D01*
X178723Y22540D01*
X178723Y31777D01*
G37*
%LPD*%
%LPC*%
G36*
X123856Y251302D02*
X123856Y251302D01*
X122229Y251830D01*
X120705Y252607D01*
X119321Y253612D01*
X118112Y254821D01*
X117107Y256205D01*
X116330Y257729D01*
X115802Y259356D01*
X115640Y260377D01*
X124877Y260377D01*
X124877Y251140D01*
X123856Y251302D01*
G37*
%LPD*%
%LPC*%
G36*
X174656Y22702D02*
X174656Y22702D01*
X173029Y23230D01*
X171505Y24007D01*
X170121Y25012D01*
X168912Y26221D01*
X167907Y27605D01*
X167130Y29129D01*
X166602Y30756D01*
X166440Y31777D01*
X175677Y31777D01*
X175677Y22540D01*
X174656Y22702D01*
G37*
%LPD*%
%LPC*%
G36*
X276256Y22702D02*
X276256Y22702D01*
X274629Y23230D01*
X273105Y24007D01*
X271721Y25012D01*
X270512Y26221D01*
X269507Y27605D01*
X268730Y29129D01*
X268202Y30756D01*
X268040Y31777D01*
X277277Y31777D01*
X277277Y22540D01*
X276256Y22702D01*
G37*
%LPD*%
%LPC*%
G36*
X280223Y188323D02*
X280223Y188323D01*
X280223Y195756D01*
X281349Y195532D01*
X283001Y194847D01*
X284489Y193853D01*
X285753Y192589D01*
X286747Y191101D01*
X287432Y189449D01*
X287656Y188323D01*
X280223Y188323D01*
G37*
%LPD*%
%LPC*%
G36*
X280223Y185277D02*
X280223Y185277D01*
X287656Y185277D01*
X287432Y184151D01*
X286747Y182499D01*
X285753Y181011D01*
X284489Y179747D01*
X283001Y178753D01*
X281349Y178068D01*
X280223Y177844D01*
X280223Y185277D01*
G37*
%LPD*%
%LPC*%
G36*
X269744Y188323D02*
X269744Y188323D01*
X269968Y189449D01*
X270653Y191101D01*
X271647Y192589D01*
X272911Y193853D01*
X274399Y194847D01*
X276051Y195532D01*
X277177Y195756D01*
X277177Y188323D01*
X269744Y188323D01*
G37*
%LPD*%
%LPC*%
G36*
X276051Y178068D02*
X276051Y178068D01*
X274399Y178753D01*
X272911Y179747D01*
X271647Y181011D01*
X270653Y182499D01*
X269968Y184151D01*
X269744Y185277D01*
X277177Y185277D01*
X277177Y177844D01*
X276051Y178068D01*
G37*
%LPD*%
%LPC*%
G36*
X409899Y147199D02*
X409899Y147199D01*
X409899Y147201D01*
X409901Y147201D01*
X409901Y147199D01*
X409899Y147199D01*
G37*
%LPD*%
%LPC*%
G36*
X634399Y152599D02*
X634399Y152599D01*
X634399Y152601D01*
X634401Y152601D01*
X634401Y152599D01*
X634399Y152599D01*
G37*
%LPD*%
%LPC*%
G36*
X480459Y52489D02*
X480459Y52489D01*
X480459Y52491D01*
X480461Y52491D01*
X480461Y52489D01*
X480459Y52489D01*
G37*
%LPD*%
%LPC*%
G36*
X278699Y186799D02*
X278699Y186799D01*
X278699Y186801D01*
X278701Y186801D01*
X278701Y186799D01*
X278699Y186799D01*
G37*
%LPD*%
%LPC*%
G36*
X604399Y104599D02*
X604399Y104599D01*
X604399Y104601D01*
X604401Y104601D01*
X604401Y104599D01*
X604399Y104599D01*
G37*
%LPD*%
%LPC*%
G36*
X400299Y50599D02*
X400299Y50599D01*
X400299Y50601D01*
X400301Y50601D01*
X400301Y50599D01*
X400299Y50599D01*
G37*
%LPD*%
%LPC*%
G36*
X409799Y201099D02*
X409799Y201099D01*
X409799Y201101D01*
X409801Y201101D01*
X409801Y201099D01*
X409799Y201099D01*
G37*
%LPD*%
%LPC*%
G36*
X409299Y99999D02*
X409299Y99999D01*
X409299Y100001D01*
X409301Y100001D01*
X409301Y99999D01*
X409299Y99999D01*
G37*
%LPD*%
%LPC*%
G36*
X455059Y237909D02*
X455059Y237909D01*
X455059Y237911D01*
X455061Y237911D01*
X455061Y237909D01*
X455059Y237909D01*
G37*
%LPD*%
%LPC*%
G36*
X480459Y237909D02*
X480459Y237909D01*
X480459Y237911D01*
X480461Y237911D01*
X480461Y237909D01*
X480459Y237909D01*
G37*
%LPD*%
%LPC*%
G36*
X504999Y124599D02*
X504999Y124599D01*
X504999Y124601D01*
X505001Y124601D01*
X505001Y124599D01*
X504999Y124599D01*
G37*
%LPD*%
%LPC*%
G36*
X126399Y261899D02*
X126399Y261899D01*
X126399Y261901D01*
X126401Y261901D01*
X126401Y261899D01*
X126399Y261899D01*
G37*
%LPD*%
%LPC*%
G36*
X278799Y33299D02*
X278799Y33299D01*
X278799Y33301D01*
X278801Y33301D01*
X278801Y33299D01*
X278799Y33299D01*
G37*
%LPD*%
%LPC*%
G36*
X177199Y33299D02*
X177199Y33299D01*
X177199Y33301D01*
X177201Y33301D01*
X177201Y33299D01*
X177199Y33299D01*
G37*
%LPD*%
%LPC*%
G36*
X455059Y52489D02*
X455059Y52489D01*
X455059Y52491D01*
X455061Y52491D01*
X455061Y52489D01*
X455059Y52489D01*
G37*
%LPD*%
D10*
X278800Y261900D03*
X253400Y261900D03*
X228000Y261900D03*
X202600Y261900D03*
X177200Y261900D03*
X151800Y261900D03*
X126400Y261900D03*
D11*
X101000Y261900D03*
X101000Y33300D03*
D10*
X126400Y33300D03*
X151800Y33300D03*
X177200Y33300D03*
X202600Y33300D03*
X228000Y33300D03*
X253400Y33300D03*
X278800Y33300D03*
D12*
X409300Y92380D02*
X409300Y107620D01*
X383900Y107620D02*
X383900Y92380D01*
X358500Y92380D02*
X358500Y107620D01*
X333100Y107620D02*
X333100Y92380D01*
X333600Y193480D02*
X333600Y208720D01*
X359000Y208720D02*
X359000Y193480D01*
X384400Y193480D02*
X384400Y208720D01*
X409800Y208720D02*
X409800Y193480D01*
X333700Y154820D02*
X333700Y139580D01*
X359100Y139580D02*
X359100Y154820D01*
X384500Y154820D02*
X384500Y139580D01*
X409900Y139580D02*
X409900Y154820D01*
D13*
X573400Y162600D02*
X573400Y142600D01*
X634400Y142600D02*
X634400Y162600D01*
X614400Y104600D02*
X594400Y104600D01*
D14*
X34600Y85200D03*
X34600Y110600D03*
X34600Y187400D03*
X34600Y212800D03*
D12*
X400300Y58220D02*
X400300Y42980D01*
X374900Y42980D02*
X374900Y58220D01*
D15*
X278700Y186800D03*
D16*
X278700Y110600D03*
D15*
X100900Y186800D03*
X100900Y110600D03*
X278700Y161400D03*
D17*
X455060Y52490D03*
D18*
X587140Y52490D03*
D17*
X455060Y237910D03*
X480460Y52490D03*
X480460Y237910D03*
D18*
X561740Y52490D03*
X587140Y237910D03*
X561740Y237910D03*
D12*
X512620Y124600D02*
X497380Y124600D01*
X497380Y150000D02*
X512620Y150000D01*
X512620Y175400D02*
X497380Y175400D01*
D19*
X100900Y186800D02*
X74900Y212800D01*
X34600Y212800D01*
X15240Y129960D02*
X34600Y110600D01*
X15240Y129960D02*
X15240Y200000D01*
X28040Y212800D01*
X34600Y212800D01*
X100900Y110600D02*
X75500Y85200D01*
X34600Y85200D01*
X100900Y110600D02*
X100900Y145600D01*
X59100Y187400D01*
X34600Y187400D01*
M02*
