G04 EAGLE Gerber RS-274X export*
G75*
%MOMM*%
%FSLAX34Y34*%
%LPD*%
%INSilkscreen Top*%
%IPPOS*%
%AMOC8*
5,1,8,0,0,1.08239X$1,22.5*%
G01*
%ADD10C,0.076200*%
%ADD11C,0.152400*%
%ADD12C,0.127000*%
%ADD13C,0.203200*%
%ADD14C,0.100000*%
%ADD15C,0.101600*%
%ADD16C,0.254000*%


D10*
X403016Y240409D02*
X404243Y240409D01*
X404243Y236317D01*
X401788Y236317D01*
X401710Y236319D01*
X401632Y236324D01*
X401555Y236334D01*
X401478Y236347D01*
X401402Y236363D01*
X401327Y236383D01*
X401253Y236407D01*
X401180Y236434D01*
X401108Y236465D01*
X401038Y236499D01*
X400970Y236536D01*
X400903Y236577D01*
X400838Y236621D01*
X400776Y236667D01*
X400716Y236717D01*
X400658Y236769D01*
X400603Y236824D01*
X400551Y236882D01*
X400501Y236942D01*
X400455Y237004D01*
X400411Y237069D01*
X400370Y237136D01*
X400333Y237204D01*
X400299Y237274D01*
X400268Y237346D01*
X400241Y237419D01*
X400217Y237493D01*
X400197Y237568D01*
X400181Y237644D01*
X400168Y237721D01*
X400158Y237798D01*
X400153Y237876D01*
X400151Y237954D01*
X400151Y242046D01*
X400153Y242126D01*
X400159Y242206D01*
X400169Y242286D01*
X400182Y242365D01*
X400200Y242444D01*
X400221Y242521D01*
X400247Y242597D01*
X400276Y242672D01*
X400308Y242746D01*
X400344Y242818D01*
X400384Y242888D01*
X400427Y242955D01*
X400473Y243021D01*
X400523Y243084D01*
X400575Y243145D01*
X400630Y243204D01*
X400689Y243259D01*
X400749Y243311D01*
X400813Y243361D01*
X400879Y243407D01*
X400946Y243450D01*
X401016Y243490D01*
X401088Y243526D01*
X401162Y243558D01*
X401236Y243587D01*
X401313Y243613D01*
X401390Y243634D01*
X401469Y243652D01*
X401548Y243665D01*
X401628Y243675D01*
X401708Y243681D01*
X401788Y243683D01*
X404243Y243683D01*
X407954Y243683D02*
X407954Y236317D01*
X412046Y236317D02*
X407954Y243683D01*
X412046Y243683D02*
X412046Y236317D01*
X415757Y236317D02*
X415757Y243683D01*
X417803Y243683D01*
X417892Y243681D01*
X417981Y243675D01*
X418070Y243665D01*
X418158Y243652D01*
X418246Y243635D01*
X418333Y243613D01*
X418418Y243588D01*
X418503Y243560D01*
X418586Y243527D01*
X418668Y243491D01*
X418748Y243452D01*
X418826Y243409D01*
X418902Y243363D01*
X418977Y243313D01*
X419049Y243260D01*
X419118Y243204D01*
X419185Y243145D01*
X419250Y243084D01*
X419311Y243019D01*
X419370Y242952D01*
X419426Y242883D01*
X419479Y242811D01*
X419529Y242736D01*
X419575Y242660D01*
X419618Y242582D01*
X419657Y242502D01*
X419693Y242420D01*
X419726Y242337D01*
X419754Y242252D01*
X419779Y242167D01*
X419801Y242080D01*
X419818Y241992D01*
X419831Y241904D01*
X419841Y241815D01*
X419847Y241726D01*
X419849Y241637D01*
X419849Y238363D01*
X419847Y238274D01*
X419841Y238185D01*
X419831Y238096D01*
X419818Y238008D01*
X419801Y237920D01*
X419779Y237833D01*
X419754Y237748D01*
X419726Y237663D01*
X419693Y237580D01*
X419657Y237498D01*
X419618Y237418D01*
X419575Y237340D01*
X419529Y237264D01*
X419479Y237189D01*
X419426Y237117D01*
X419370Y237048D01*
X419311Y236981D01*
X419250Y236916D01*
X419185Y236855D01*
X419118Y236796D01*
X419049Y236740D01*
X418977Y236687D01*
X418902Y236637D01*
X418826Y236591D01*
X418748Y236548D01*
X418668Y236509D01*
X418586Y236473D01*
X418503Y236440D01*
X418418Y236412D01*
X418333Y236387D01*
X418246Y236365D01*
X418158Y236348D01*
X418070Y236335D01*
X417981Y236325D01*
X417892Y236319D01*
X417803Y236317D01*
X415757Y236317D01*
X378920Y236317D02*
X376465Y243683D01*
X381375Y243683D02*
X378920Y236317D01*
X385803Y236317D02*
X387440Y236317D01*
X385803Y236317D02*
X385725Y236319D01*
X385647Y236324D01*
X385570Y236334D01*
X385493Y236347D01*
X385417Y236363D01*
X385342Y236383D01*
X385268Y236407D01*
X385195Y236434D01*
X385123Y236465D01*
X385053Y236499D01*
X384985Y236536D01*
X384918Y236577D01*
X384853Y236621D01*
X384791Y236667D01*
X384731Y236717D01*
X384673Y236769D01*
X384618Y236824D01*
X384566Y236882D01*
X384516Y236942D01*
X384470Y237004D01*
X384426Y237069D01*
X384385Y237136D01*
X384348Y237204D01*
X384314Y237274D01*
X384283Y237346D01*
X384256Y237419D01*
X384232Y237493D01*
X384212Y237568D01*
X384196Y237644D01*
X384183Y237721D01*
X384173Y237798D01*
X384168Y237876D01*
X384166Y237954D01*
X384166Y242046D01*
X384168Y242126D01*
X384174Y242206D01*
X384184Y242286D01*
X384197Y242365D01*
X384215Y242444D01*
X384236Y242521D01*
X384262Y242597D01*
X384291Y242672D01*
X384323Y242746D01*
X384359Y242818D01*
X384399Y242888D01*
X384442Y242955D01*
X384488Y243021D01*
X384538Y243084D01*
X384590Y243145D01*
X384645Y243204D01*
X384704Y243259D01*
X384764Y243311D01*
X384828Y243361D01*
X384894Y243407D01*
X384961Y243450D01*
X385031Y243490D01*
X385103Y243526D01*
X385177Y243558D01*
X385251Y243587D01*
X385328Y243613D01*
X385405Y243634D01*
X385484Y243652D01*
X385563Y243665D01*
X385643Y243675D01*
X385723Y243681D01*
X385803Y243683D01*
X387440Y243683D01*
X391899Y236317D02*
X393536Y236317D01*
X391899Y236317D02*
X391821Y236319D01*
X391743Y236324D01*
X391666Y236334D01*
X391589Y236347D01*
X391513Y236363D01*
X391438Y236383D01*
X391364Y236407D01*
X391291Y236434D01*
X391219Y236465D01*
X391149Y236499D01*
X391081Y236536D01*
X391014Y236577D01*
X390949Y236621D01*
X390887Y236667D01*
X390827Y236717D01*
X390769Y236769D01*
X390714Y236824D01*
X390662Y236882D01*
X390612Y236942D01*
X390566Y237004D01*
X390522Y237069D01*
X390481Y237136D01*
X390444Y237204D01*
X390410Y237274D01*
X390379Y237346D01*
X390352Y237419D01*
X390328Y237493D01*
X390308Y237568D01*
X390292Y237644D01*
X390279Y237721D01*
X390269Y237798D01*
X390264Y237876D01*
X390262Y237954D01*
X390262Y242046D01*
X390264Y242126D01*
X390270Y242206D01*
X390280Y242286D01*
X390293Y242365D01*
X390311Y242444D01*
X390332Y242521D01*
X390358Y242597D01*
X390387Y242672D01*
X390419Y242746D01*
X390455Y242818D01*
X390495Y242888D01*
X390538Y242955D01*
X390584Y243021D01*
X390634Y243084D01*
X390686Y243145D01*
X390741Y243204D01*
X390800Y243259D01*
X390860Y243311D01*
X390924Y243361D01*
X390990Y243407D01*
X391057Y243450D01*
X391127Y243490D01*
X391199Y243526D01*
X391273Y243558D01*
X391347Y243587D01*
X391424Y243613D01*
X391501Y243634D01*
X391580Y243652D01*
X391659Y243665D01*
X391739Y243675D01*
X391819Y243681D01*
X391899Y243683D01*
X393536Y243683D01*
X328842Y243683D02*
X326796Y242046D01*
X328842Y243683D02*
X328842Y236317D01*
X326796Y236317D02*
X330889Y236317D01*
X334112Y236317D02*
X336567Y236317D01*
X336645Y236319D01*
X336723Y236324D01*
X336800Y236334D01*
X336877Y236347D01*
X336953Y236363D01*
X337028Y236383D01*
X337102Y236407D01*
X337175Y236434D01*
X337247Y236465D01*
X337317Y236499D01*
X337386Y236536D01*
X337452Y236577D01*
X337517Y236621D01*
X337579Y236667D01*
X337639Y236717D01*
X337697Y236769D01*
X337752Y236824D01*
X337804Y236882D01*
X337854Y236942D01*
X337900Y237004D01*
X337944Y237069D01*
X337985Y237136D01*
X338022Y237204D01*
X338056Y237274D01*
X338087Y237346D01*
X338114Y237419D01*
X338138Y237493D01*
X338158Y237568D01*
X338174Y237644D01*
X338187Y237721D01*
X338197Y237798D01*
X338202Y237876D01*
X338204Y237954D01*
X338204Y238772D01*
X338202Y238850D01*
X338197Y238928D01*
X338187Y239005D01*
X338174Y239082D01*
X338158Y239158D01*
X338138Y239233D01*
X338114Y239307D01*
X338087Y239380D01*
X338056Y239452D01*
X338022Y239522D01*
X337985Y239591D01*
X337944Y239657D01*
X337900Y239722D01*
X337854Y239784D01*
X337804Y239844D01*
X337752Y239902D01*
X337697Y239957D01*
X337639Y240009D01*
X337579Y240059D01*
X337517Y240105D01*
X337452Y240149D01*
X337386Y240190D01*
X337317Y240227D01*
X337247Y240261D01*
X337175Y240292D01*
X337102Y240319D01*
X337028Y240343D01*
X336953Y240363D01*
X336877Y240379D01*
X336800Y240392D01*
X336723Y240402D01*
X336645Y240407D01*
X336567Y240409D01*
X334112Y240409D01*
X334112Y243683D01*
X338204Y243683D01*
X347869Y78683D02*
X347869Y73363D01*
X347871Y73274D01*
X347877Y73185D01*
X347887Y73096D01*
X347900Y73008D01*
X347917Y72920D01*
X347939Y72833D01*
X347964Y72748D01*
X347992Y72663D01*
X348025Y72580D01*
X348061Y72498D01*
X348100Y72418D01*
X348143Y72340D01*
X348189Y72264D01*
X348239Y72189D01*
X348292Y72117D01*
X348348Y72048D01*
X348407Y71981D01*
X348468Y71916D01*
X348533Y71855D01*
X348600Y71796D01*
X348669Y71740D01*
X348741Y71687D01*
X348816Y71637D01*
X348892Y71591D01*
X348970Y71548D01*
X349050Y71509D01*
X349132Y71473D01*
X349215Y71440D01*
X349300Y71412D01*
X349385Y71387D01*
X349472Y71365D01*
X349560Y71348D01*
X349648Y71335D01*
X349737Y71325D01*
X349826Y71319D01*
X349915Y71317D01*
X350004Y71319D01*
X350093Y71325D01*
X350182Y71335D01*
X350270Y71348D01*
X350358Y71365D01*
X350445Y71387D01*
X350530Y71412D01*
X350615Y71440D01*
X350698Y71473D01*
X350780Y71509D01*
X350860Y71548D01*
X350938Y71591D01*
X351014Y71637D01*
X351089Y71687D01*
X351161Y71740D01*
X351230Y71796D01*
X351297Y71855D01*
X351362Y71916D01*
X351423Y71981D01*
X351482Y72048D01*
X351538Y72117D01*
X351591Y72189D01*
X351641Y72264D01*
X351687Y72340D01*
X351730Y72418D01*
X351769Y72498D01*
X351805Y72580D01*
X351838Y72663D01*
X351866Y72748D01*
X351891Y72833D01*
X351913Y72920D01*
X351930Y73008D01*
X351943Y73096D01*
X351953Y73185D01*
X351959Y73274D01*
X351961Y73363D01*
X351962Y73363D02*
X351962Y78683D01*
X355428Y76637D02*
X355428Y73363D01*
X355428Y76637D02*
X355430Y76726D01*
X355436Y76815D01*
X355446Y76904D01*
X355459Y76992D01*
X355476Y77080D01*
X355498Y77167D01*
X355523Y77252D01*
X355551Y77337D01*
X355584Y77420D01*
X355620Y77502D01*
X355659Y77582D01*
X355702Y77660D01*
X355748Y77736D01*
X355798Y77811D01*
X355851Y77883D01*
X355907Y77952D01*
X355966Y78019D01*
X356027Y78084D01*
X356092Y78145D01*
X356159Y78204D01*
X356228Y78260D01*
X356300Y78313D01*
X356375Y78363D01*
X356451Y78409D01*
X356529Y78452D01*
X356609Y78491D01*
X356691Y78527D01*
X356774Y78560D01*
X356859Y78588D01*
X356944Y78613D01*
X357031Y78635D01*
X357119Y78652D01*
X357207Y78665D01*
X357296Y78675D01*
X357385Y78681D01*
X357474Y78683D01*
X357563Y78681D01*
X357652Y78675D01*
X357741Y78665D01*
X357829Y78652D01*
X357917Y78635D01*
X358004Y78613D01*
X358089Y78588D01*
X358174Y78560D01*
X358257Y78527D01*
X358339Y78491D01*
X358419Y78452D01*
X358497Y78409D01*
X358573Y78363D01*
X358648Y78313D01*
X358720Y78260D01*
X358789Y78204D01*
X358856Y78145D01*
X358921Y78084D01*
X358982Y78019D01*
X359041Y77952D01*
X359097Y77883D01*
X359150Y77811D01*
X359200Y77736D01*
X359246Y77660D01*
X359289Y77582D01*
X359328Y77502D01*
X359364Y77420D01*
X359397Y77337D01*
X359425Y77252D01*
X359450Y77167D01*
X359472Y77080D01*
X359489Y76992D01*
X359502Y76904D01*
X359512Y76815D01*
X359518Y76726D01*
X359520Y76637D01*
X359521Y76637D02*
X359521Y73363D01*
X359520Y73363D02*
X359518Y73274D01*
X359512Y73185D01*
X359502Y73096D01*
X359489Y73008D01*
X359472Y72920D01*
X359450Y72833D01*
X359425Y72748D01*
X359397Y72663D01*
X359364Y72580D01*
X359328Y72498D01*
X359289Y72418D01*
X359246Y72340D01*
X359200Y72264D01*
X359150Y72189D01*
X359097Y72117D01*
X359041Y72048D01*
X358982Y71981D01*
X358921Y71916D01*
X358856Y71855D01*
X358789Y71796D01*
X358720Y71740D01*
X358648Y71687D01*
X358573Y71637D01*
X358497Y71591D01*
X358419Y71548D01*
X358339Y71509D01*
X358257Y71473D01*
X358174Y71440D01*
X358089Y71412D01*
X358004Y71387D01*
X357917Y71365D01*
X357829Y71348D01*
X357741Y71335D01*
X357652Y71325D01*
X357563Y71319D01*
X357474Y71317D01*
X357385Y71319D01*
X357296Y71325D01*
X357207Y71335D01*
X357119Y71348D01*
X357031Y71365D01*
X356944Y71387D01*
X356859Y71412D01*
X356774Y71440D01*
X356691Y71473D01*
X356609Y71509D01*
X356529Y71548D01*
X356451Y71591D01*
X356375Y71637D01*
X356300Y71687D01*
X356228Y71740D01*
X356159Y71796D01*
X356092Y71855D01*
X356027Y71916D01*
X355966Y71981D01*
X355907Y72048D01*
X355851Y72117D01*
X355798Y72189D01*
X355748Y72264D01*
X355702Y72340D01*
X355659Y72418D01*
X355620Y72498D01*
X355584Y72580D01*
X355551Y72663D01*
X355523Y72748D01*
X355498Y72833D01*
X355476Y72920D01*
X355459Y73008D01*
X355446Y73096D01*
X355436Y73185D01*
X355430Y73274D01*
X355428Y73363D01*
X363039Y71317D02*
X363039Y78683D01*
X365085Y78683D01*
X365174Y78681D01*
X365263Y78675D01*
X365352Y78665D01*
X365440Y78652D01*
X365528Y78635D01*
X365615Y78613D01*
X365700Y78588D01*
X365785Y78560D01*
X365868Y78527D01*
X365950Y78491D01*
X366030Y78452D01*
X366108Y78409D01*
X366184Y78363D01*
X366259Y78313D01*
X366331Y78260D01*
X366400Y78204D01*
X366467Y78145D01*
X366532Y78084D01*
X366593Y78019D01*
X366652Y77952D01*
X366708Y77883D01*
X366761Y77811D01*
X366811Y77736D01*
X366857Y77660D01*
X366900Y77582D01*
X366939Y77502D01*
X366975Y77420D01*
X367008Y77337D01*
X367036Y77252D01*
X367061Y77167D01*
X367083Y77080D01*
X367100Y76992D01*
X367113Y76904D01*
X367123Y76815D01*
X367129Y76726D01*
X367131Y76637D01*
X367129Y76548D01*
X367123Y76459D01*
X367113Y76370D01*
X367100Y76282D01*
X367083Y76194D01*
X367061Y76107D01*
X367036Y76022D01*
X367008Y75937D01*
X366975Y75854D01*
X366939Y75772D01*
X366900Y75692D01*
X366857Y75614D01*
X366811Y75538D01*
X366761Y75463D01*
X366708Y75391D01*
X366652Y75322D01*
X366593Y75255D01*
X366532Y75190D01*
X366467Y75129D01*
X366400Y75070D01*
X366331Y75014D01*
X366259Y74961D01*
X366184Y74911D01*
X366108Y74865D01*
X366030Y74822D01*
X365950Y74783D01*
X365868Y74747D01*
X365785Y74714D01*
X365700Y74686D01*
X365615Y74661D01*
X365528Y74639D01*
X365440Y74622D01*
X365352Y74609D01*
X365263Y74599D01*
X365174Y74593D01*
X365085Y74591D01*
X363039Y74591D01*
X365494Y74591D02*
X367131Y71317D01*
X320761Y73363D02*
X320761Y78683D01*
X320761Y73363D02*
X320763Y73274D01*
X320769Y73185D01*
X320779Y73096D01*
X320792Y73008D01*
X320809Y72920D01*
X320831Y72833D01*
X320856Y72748D01*
X320884Y72663D01*
X320917Y72580D01*
X320953Y72498D01*
X320992Y72418D01*
X321035Y72340D01*
X321081Y72264D01*
X321131Y72189D01*
X321184Y72117D01*
X321240Y72048D01*
X321299Y71981D01*
X321360Y71916D01*
X321425Y71855D01*
X321492Y71796D01*
X321561Y71740D01*
X321633Y71687D01*
X321708Y71637D01*
X321784Y71591D01*
X321862Y71548D01*
X321942Y71509D01*
X322024Y71473D01*
X322107Y71440D01*
X322192Y71412D01*
X322277Y71387D01*
X322364Y71365D01*
X322452Y71348D01*
X322540Y71335D01*
X322629Y71325D01*
X322718Y71319D01*
X322807Y71317D01*
X322896Y71319D01*
X322985Y71325D01*
X323074Y71335D01*
X323162Y71348D01*
X323250Y71365D01*
X323337Y71387D01*
X323422Y71412D01*
X323507Y71440D01*
X323590Y71473D01*
X323672Y71509D01*
X323752Y71548D01*
X323830Y71591D01*
X323906Y71637D01*
X323981Y71687D01*
X324053Y71740D01*
X324122Y71796D01*
X324189Y71855D01*
X324254Y71916D01*
X324315Y71981D01*
X324374Y72048D01*
X324430Y72117D01*
X324483Y72189D01*
X324533Y72264D01*
X324579Y72340D01*
X324622Y72418D01*
X324661Y72498D01*
X324697Y72580D01*
X324730Y72663D01*
X324758Y72748D01*
X324783Y72833D01*
X324805Y72920D01*
X324822Y73008D01*
X324835Y73096D01*
X324845Y73185D01*
X324851Y73274D01*
X324853Y73363D01*
X324853Y78683D01*
X328320Y76637D02*
X328320Y73363D01*
X328320Y76637D02*
X328322Y76726D01*
X328328Y76815D01*
X328338Y76904D01*
X328351Y76992D01*
X328368Y77080D01*
X328390Y77167D01*
X328415Y77252D01*
X328443Y77337D01*
X328476Y77420D01*
X328512Y77502D01*
X328551Y77582D01*
X328594Y77660D01*
X328640Y77736D01*
X328690Y77811D01*
X328743Y77883D01*
X328799Y77952D01*
X328858Y78019D01*
X328919Y78084D01*
X328984Y78145D01*
X329051Y78204D01*
X329120Y78260D01*
X329192Y78313D01*
X329267Y78363D01*
X329343Y78409D01*
X329421Y78452D01*
X329501Y78491D01*
X329583Y78527D01*
X329666Y78560D01*
X329751Y78588D01*
X329836Y78613D01*
X329923Y78635D01*
X330011Y78652D01*
X330099Y78665D01*
X330188Y78675D01*
X330277Y78681D01*
X330366Y78683D01*
X330455Y78681D01*
X330544Y78675D01*
X330633Y78665D01*
X330721Y78652D01*
X330809Y78635D01*
X330896Y78613D01*
X330981Y78588D01*
X331066Y78560D01*
X331149Y78527D01*
X331231Y78491D01*
X331311Y78452D01*
X331389Y78409D01*
X331465Y78363D01*
X331540Y78313D01*
X331612Y78260D01*
X331681Y78204D01*
X331748Y78145D01*
X331813Y78084D01*
X331874Y78019D01*
X331933Y77952D01*
X331989Y77883D01*
X332042Y77811D01*
X332092Y77736D01*
X332138Y77660D01*
X332181Y77582D01*
X332220Y77502D01*
X332256Y77420D01*
X332289Y77337D01*
X332317Y77252D01*
X332342Y77167D01*
X332364Y77080D01*
X332381Y76992D01*
X332394Y76904D01*
X332404Y76815D01*
X332410Y76726D01*
X332412Y76637D01*
X332412Y73363D01*
X332410Y73274D01*
X332404Y73185D01*
X332394Y73096D01*
X332381Y73008D01*
X332364Y72920D01*
X332342Y72833D01*
X332317Y72748D01*
X332289Y72663D01*
X332256Y72580D01*
X332220Y72498D01*
X332181Y72418D01*
X332138Y72340D01*
X332092Y72264D01*
X332042Y72189D01*
X331989Y72117D01*
X331933Y72048D01*
X331874Y71981D01*
X331813Y71916D01*
X331748Y71855D01*
X331681Y71796D01*
X331612Y71740D01*
X331540Y71687D01*
X331465Y71637D01*
X331389Y71591D01*
X331311Y71548D01*
X331231Y71509D01*
X331149Y71473D01*
X331066Y71440D01*
X330981Y71412D01*
X330896Y71387D01*
X330809Y71365D01*
X330721Y71348D01*
X330633Y71335D01*
X330544Y71325D01*
X330455Y71319D01*
X330366Y71317D01*
X330277Y71319D01*
X330188Y71325D01*
X330099Y71335D01*
X330011Y71348D01*
X329923Y71365D01*
X329836Y71387D01*
X329751Y71412D01*
X329666Y71440D01*
X329583Y71473D01*
X329501Y71509D01*
X329421Y71548D01*
X329343Y71591D01*
X329267Y71637D01*
X329192Y71687D01*
X329120Y71740D01*
X329051Y71796D01*
X328984Y71855D01*
X328919Y71916D01*
X328858Y71981D01*
X328799Y72048D01*
X328743Y72117D01*
X328690Y72189D01*
X328640Y72264D01*
X328594Y72340D01*
X328551Y72418D01*
X328512Y72498D01*
X328476Y72580D01*
X328443Y72663D01*
X328415Y72748D01*
X328390Y72833D01*
X328368Y72920D01*
X328351Y73008D01*
X328338Y73096D01*
X328328Y73185D01*
X328322Y73274D01*
X328320Y73363D01*
X337193Y71317D02*
X337193Y78683D01*
X335147Y78683D02*
X339239Y78683D01*
X351796Y242046D02*
X353842Y243683D01*
X353842Y236317D01*
X351796Y236317D02*
X355889Y236317D01*
X359112Y237954D02*
X360748Y243683D01*
X359112Y237954D02*
X363204Y237954D01*
X361976Y239591D02*
X361976Y236317D01*
X236465Y116183D02*
X238920Y108817D01*
X241375Y116183D01*
X245803Y108817D02*
X247440Y108817D01*
X245803Y108817D02*
X245725Y108819D01*
X245647Y108824D01*
X245570Y108834D01*
X245493Y108847D01*
X245417Y108863D01*
X245342Y108883D01*
X245268Y108907D01*
X245195Y108934D01*
X245123Y108965D01*
X245053Y108999D01*
X244985Y109036D01*
X244918Y109077D01*
X244853Y109121D01*
X244791Y109167D01*
X244731Y109217D01*
X244673Y109269D01*
X244618Y109324D01*
X244566Y109382D01*
X244516Y109442D01*
X244470Y109504D01*
X244426Y109569D01*
X244385Y109636D01*
X244348Y109704D01*
X244314Y109774D01*
X244283Y109846D01*
X244256Y109919D01*
X244232Y109993D01*
X244212Y110068D01*
X244196Y110144D01*
X244183Y110221D01*
X244173Y110298D01*
X244168Y110376D01*
X244166Y110454D01*
X244166Y114546D01*
X244168Y114626D01*
X244174Y114706D01*
X244184Y114786D01*
X244197Y114865D01*
X244215Y114944D01*
X244236Y115021D01*
X244262Y115097D01*
X244291Y115172D01*
X244323Y115246D01*
X244359Y115318D01*
X244399Y115388D01*
X244442Y115455D01*
X244488Y115521D01*
X244538Y115584D01*
X244590Y115645D01*
X244645Y115704D01*
X244704Y115759D01*
X244764Y115811D01*
X244828Y115861D01*
X244894Y115907D01*
X244961Y115950D01*
X245031Y115990D01*
X245103Y116026D01*
X245177Y116058D01*
X245251Y116087D01*
X245328Y116113D01*
X245405Y116134D01*
X245484Y116152D01*
X245563Y116165D01*
X245643Y116175D01*
X245723Y116181D01*
X245803Y116183D01*
X247440Y116183D01*
X251899Y108817D02*
X253536Y108817D01*
X251899Y108817D02*
X251821Y108819D01*
X251743Y108824D01*
X251666Y108834D01*
X251589Y108847D01*
X251513Y108863D01*
X251438Y108883D01*
X251364Y108907D01*
X251291Y108934D01*
X251219Y108965D01*
X251149Y108999D01*
X251081Y109036D01*
X251014Y109077D01*
X250949Y109121D01*
X250887Y109167D01*
X250827Y109217D01*
X250769Y109269D01*
X250714Y109324D01*
X250662Y109382D01*
X250612Y109442D01*
X250566Y109504D01*
X250522Y109569D01*
X250481Y109636D01*
X250444Y109704D01*
X250410Y109774D01*
X250379Y109846D01*
X250352Y109919D01*
X250328Y109993D01*
X250308Y110068D01*
X250292Y110144D01*
X250279Y110221D01*
X250269Y110298D01*
X250264Y110376D01*
X250262Y110454D01*
X250262Y114546D01*
X250264Y114626D01*
X250270Y114706D01*
X250280Y114786D01*
X250293Y114865D01*
X250311Y114944D01*
X250332Y115021D01*
X250358Y115097D01*
X250387Y115172D01*
X250419Y115246D01*
X250455Y115318D01*
X250495Y115388D01*
X250538Y115455D01*
X250584Y115521D01*
X250634Y115584D01*
X250686Y115645D01*
X250741Y115704D01*
X250800Y115759D01*
X250860Y115811D01*
X250924Y115861D01*
X250990Y115907D01*
X251057Y115950D01*
X251127Y115990D01*
X251199Y116026D01*
X251273Y116058D01*
X251347Y116087D01*
X251424Y116113D01*
X251501Y116134D01*
X251580Y116152D01*
X251659Y116165D01*
X251739Y116175D01*
X251819Y116181D01*
X251899Y116183D01*
X253536Y116183D01*
X117585Y106317D02*
X115130Y113683D01*
X120041Y113683D02*
X117585Y106317D01*
X123114Y106317D02*
X123114Y113683D01*
X123114Y106317D02*
X126388Y106317D01*
X129454Y106317D02*
X132727Y106317D01*
X129454Y106317D02*
X129454Y113683D01*
X132727Y113683D01*
X131909Y110409D02*
X129454Y110409D01*
X135778Y113683D02*
X135778Y106317D01*
X135778Y113683D02*
X137824Y113683D01*
X137913Y113681D01*
X138002Y113675D01*
X138091Y113665D01*
X138179Y113652D01*
X138267Y113635D01*
X138354Y113613D01*
X138439Y113588D01*
X138524Y113560D01*
X138607Y113527D01*
X138689Y113491D01*
X138769Y113452D01*
X138847Y113409D01*
X138923Y113363D01*
X138998Y113313D01*
X139070Y113260D01*
X139139Y113204D01*
X139206Y113145D01*
X139271Y113084D01*
X139332Y113019D01*
X139391Y112952D01*
X139447Y112883D01*
X139500Y112811D01*
X139550Y112736D01*
X139596Y112660D01*
X139639Y112582D01*
X139678Y112502D01*
X139714Y112420D01*
X139747Y112337D01*
X139775Y112252D01*
X139800Y112167D01*
X139822Y112080D01*
X139839Y111992D01*
X139852Y111904D01*
X139862Y111815D01*
X139868Y111726D01*
X139870Y111637D01*
X139870Y108363D01*
X139868Y108274D01*
X139862Y108185D01*
X139852Y108096D01*
X139839Y108008D01*
X139822Y107920D01*
X139800Y107833D01*
X139775Y107748D01*
X139747Y107663D01*
X139714Y107580D01*
X139678Y107498D01*
X139639Y107418D01*
X139596Y107340D01*
X139550Y107264D01*
X139500Y107189D01*
X139447Y107117D01*
X139391Y107048D01*
X139332Y106981D01*
X139271Y106916D01*
X139206Y106855D01*
X139139Y106796D01*
X139070Y106740D01*
X138998Y106687D01*
X138923Y106637D01*
X138847Y106591D01*
X138769Y106548D01*
X138689Y106509D01*
X138607Y106473D01*
X138524Y106440D01*
X138439Y106412D01*
X138354Y106387D01*
X138267Y106365D01*
X138179Y106348D01*
X138091Y106335D01*
X138002Y106325D01*
X137913Y106319D01*
X137824Y106317D01*
X135778Y106317D01*
X119243Y187909D02*
X118016Y187909D01*
X119243Y187909D02*
X119243Y183817D01*
X116788Y183817D01*
X116710Y183819D01*
X116632Y183824D01*
X116555Y183834D01*
X116478Y183847D01*
X116402Y183863D01*
X116327Y183883D01*
X116253Y183907D01*
X116180Y183934D01*
X116108Y183965D01*
X116038Y183999D01*
X115970Y184036D01*
X115903Y184077D01*
X115838Y184121D01*
X115776Y184167D01*
X115716Y184217D01*
X115658Y184269D01*
X115603Y184324D01*
X115551Y184382D01*
X115501Y184442D01*
X115455Y184504D01*
X115411Y184569D01*
X115370Y184636D01*
X115333Y184704D01*
X115299Y184774D01*
X115268Y184846D01*
X115241Y184919D01*
X115217Y184993D01*
X115197Y185068D01*
X115181Y185144D01*
X115168Y185221D01*
X115158Y185298D01*
X115153Y185376D01*
X115151Y185454D01*
X115151Y189546D01*
X115153Y189626D01*
X115159Y189706D01*
X115169Y189786D01*
X115182Y189865D01*
X115200Y189944D01*
X115221Y190021D01*
X115247Y190097D01*
X115276Y190172D01*
X115308Y190246D01*
X115344Y190318D01*
X115384Y190388D01*
X115427Y190455D01*
X115473Y190521D01*
X115523Y190584D01*
X115575Y190645D01*
X115630Y190704D01*
X115689Y190759D01*
X115749Y190811D01*
X115813Y190861D01*
X115879Y190907D01*
X115946Y190950D01*
X116016Y190990D01*
X116088Y191026D01*
X116162Y191058D01*
X116236Y191087D01*
X116313Y191113D01*
X116390Y191134D01*
X116469Y191152D01*
X116548Y191165D01*
X116628Y191175D01*
X116708Y191181D01*
X116788Y191183D01*
X119243Y191183D01*
X122954Y191183D02*
X122954Y183817D01*
X127046Y183817D02*
X122954Y191183D01*
X127046Y191183D02*
X127046Y183817D01*
X130757Y183817D02*
X130757Y191183D01*
X132803Y191183D01*
X132892Y191181D01*
X132981Y191175D01*
X133070Y191165D01*
X133158Y191152D01*
X133246Y191135D01*
X133333Y191113D01*
X133418Y191088D01*
X133503Y191060D01*
X133586Y191027D01*
X133668Y190991D01*
X133748Y190952D01*
X133826Y190909D01*
X133902Y190863D01*
X133977Y190813D01*
X134049Y190760D01*
X134118Y190704D01*
X134185Y190645D01*
X134250Y190584D01*
X134311Y190519D01*
X134370Y190452D01*
X134426Y190383D01*
X134479Y190311D01*
X134529Y190236D01*
X134575Y190160D01*
X134618Y190082D01*
X134657Y190002D01*
X134693Y189920D01*
X134726Y189837D01*
X134754Y189752D01*
X134779Y189667D01*
X134801Y189580D01*
X134818Y189492D01*
X134831Y189404D01*
X134841Y189315D01*
X134847Y189226D01*
X134849Y189137D01*
X134849Y185863D01*
X134847Y185774D01*
X134841Y185685D01*
X134831Y185596D01*
X134818Y185508D01*
X134801Y185420D01*
X134779Y185333D01*
X134754Y185248D01*
X134726Y185163D01*
X134693Y185080D01*
X134657Y184998D01*
X134618Y184918D01*
X134575Y184840D01*
X134529Y184764D01*
X134479Y184689D01*
X134426Y184617D01*
X134370Y184548D01*
X134311Y184481D01*
X134250Y184416D01*
X134185Y184355D01*
X134118Y184296D01*
X134049Y184240D01*
X133977Y184187D01*
X133902Y184137D01*
X133826Y184091D01*
X133748Y184048D01*
X133668Y184009D01*
X133586Y183973D01*
X133503Y183940D01*
X133418Y183912D01*
X133333Y183887D01*
X133246Y183865D01*
X133158Y183848D01*
X133070Y183835D01*
X132981Y183825D01*
X132892Y183819D01*
X132803Y183817D01*
X130757Y183817D01*
X240516Y185409D02*
X241743Y185409D01*
X241743Y181317D01*
X239288Y181317D01*
X239210Y181319D01*
X239132Y181324D01*
X239055Y181334D01*
X238978Y181347D01*
X238902Y181363D01*
X238827Y181383D01*
X238753Y181407D01*
X238680Y181434D01*
X238608Y181465D01*
X238538Y181499D01*
X238470Y181536D01*
X238403Y181577D01*
X238338Y181621D01*
X238276Y181667D01*
X238216Y181717D01*
X238158Y181769D01*
X238103Y181824D01*
X238051Y181882D01*
X238001Y181942D01*
X237955Y182004D01*
X237911Y182069D01*
X237870Y182136D01*
X237833Y182204D01*
X237799Y182274D01*
X237768Y182346D01*
X237741Y182419D01*
X237717Y182493D01*
X237697Y182568D01*
X237681Y182644D01*
X237668Y182721D01*
X237658Y182798D01*
X237653Y182876D01*
X237651Y182954D01*
X237651Y187046D01*
X237653Y187126D01*
X237659Y187206D01*
X237669Y187286D01*
X237682Y187365D01*
X237700Y187444D01*
X237721Y187521D01*
X237747Y187597D01*
X237776Y187672D01*
X237808Y187746D01*
X237844Y187818D01*
X237884Y187888D01*
X237927Y187955D01*
X237973Y188021D01*
X238023Y188084D01*
X238075Y188145D01*
X238130Y188204D01*
X238189Y188259D01*
X238249Y188311D01*
X238313Y188361D01*
X238379Y188407D01*
X238446Y188450D01*
X238516Y188490D01*
X238588Y188526D01*
X238662Y188558D01*
X238736Y188587D01*
X238813Y188613D01*
X238890Y188634D01*
X238969Y188652D01*
X239048Y188665D01*
X239128Y188675D01*
X239208Y188681D01*
X239288Y188683D01*
X241743Y188683D01*
X245454Y188683D02*
X245454Y181317D01*
X249546Y181317D02*
X245454Y188683D01*
X249546Y188683D02*
X249546Y181317D01*
X253257Y181317D02*
X253257Y188683D01*
X255303Y188683D01*
X255392Y188681D01*
X255481Y188675D01*
X255570Y188665D01*
X255658Y188652D01*
X255746Y188635D01*
X255833Y188613D01*
X255918Y188588D01*
X256003Y188560D01*
X256086Y188527D01*
X256168Y188491D01*
X256248Y188452D01*
X256326Y188409D01*
X256402Y188363D01*
X256477Y188313D01*
X256549Y188260D01*
X256618Y188204D01*
X256685Y188145D01*
X256750Y188084D01*
X256811Y188019D01*
X256870Y187952D01*
X256926Y187883D01*
X256979Y187811D01*
X257029Y187736D01*
X257075Y187660D01*
X257118Y187582D01*
X257157Y187502D01*
X257193Y187420D01*
X257226Y187337D01*
X257254Y187252D01*
X257279Y187167D01*
X257301Y187080D01*
X257318Y186992D01*
X257331Y186904D01*
X257341Y186815D01*
X257347Y186726D01*
X257349Y186637D01*
X257349Y183363D01*
X257347Y183274D01*
X257341Y183185D01*
X257331Y183096D01*
X257318Y183008D01*
X257301Y182920D01*
X257279Y182833D01*
X257254Y182748D01*
X257226Y182663D01*
X257193Y182580D01*
X257157Y182498D01*
X257118Y182418D01*
X257075Y182340D01*
X257029Y182264D01*
X256979Y182189D01*
X256926Y182117D01*
X256870Y182048D01*
X256811Y181981D01*
X256750Y181916D01*
X256685Y181855D01*
X256618Y181796D01*
X256549Y181740D01*
X256477Y181687D01*
X256402Y181637D01*
X256326Y181591D01*
X256248Y181548D01*
X256168Y181509D01*
X256086Y181473D01*
X256003Y181440D01*
X255918Y181412D01*
X255833Y181387D01*
X255746Y181365D01*
X255658Y181348D01*
X255570Y181335D01*
X255481Y181325D01*
X255392Y181319D01*
X255303Y181317D01*
X253257Y181317D01*
X234145Y163683D02*
X234145Y156317D01*
X234963Y156317D02*
X233326Y156317D01*
X233326Y163683D02*
X234963Y163683D01*
X237951Y161637D02*
X237951Y158363D01*
X237951Y161637D02*
X237953Y161726D01*
X237959Y161815D01*
X237969Y161904D01*
X237982Y161992D01*
X237999Y162080D01*
X238021Y162167D01*
X238046Y162252D01*
X238074Y162337D01*
X238107Y162420D01*
X238143Y162502D01*
X238182Y162582D01*
X238225Y162660D01*
X238271Y162736D01*
X238321Y162811D01*
X238374Y162883D01*
X238430Y162952D01*
X238489Y163019D01*
X238550Y163084D01*
X238615Y163145D01*
X238682Y163204D01*
X238751Y163260D01*
X238823Y163313D01*
X238898Y163363D01*
X238974Y163409D01*
X239052Y163452D01*
X239132Y163491D01*
X239214Y163527D01*
X239297Y163560D01*
X239382Y163588D01*
X239467Y163613D01*
X239554Y163635D01*
X239642Y163652D01*
X239730Y163665D01*
X239819Y163675D01*
X239908Y163681D01*
X239997Y163683D01*
X240086Y163681D01*
X240175Y163675D01*
X240264Y163665D01*
X240352Y163652D01*
X240440Y163635D01*
X240527Y163613D01*
X240612Y163588D01*
X240697Y163560D01*
X240780Y163527D01*
X240862Y163491D01*
X240942Y163452D01*
X241020Y163409D01*
X241096Y163363D01*
X241171Y163313D01*
X241243Y163260D01*
X241312Y163204D01*
X241379Y163145D01*
X241444Y163084D01*
X241505Y163019D01*
X241564Y162952D01*
X241620Y162883D01*
X241673Y162811D01*
X241723Y162736D01*
X241769Y162660D01*
X241812Y162582D01*
X241851Y162502D01*
X241887Y162420D01*
X241920Y162337D01*
X241948Y162252D01*
X241973Y162167D01*
X241995Y162080D01*
X242012Y161992D01*
X242025Y161904D01*
X242035Y161815D01*
X242041Y161726D01*
X242043Y161637D01*
X242043Y158363D01*
X242041Y158274D01*
X242035Y158185D01*
X242025Y158096D01*
X242012Y158008D01*
X241995Y157920D01*
X241973Y157833D01*
X241948Y157748D01*
X241920Y157663D01*
X241887Y157580D01*
X241851Y157498D01*
X241812Y157418D01*
X241769Y157340D01*
X241723Y157264D01*
X241673Y157189D01*
X241620Y157117D01*
X241564Y157048D01*
X241505Y156981D01*
X241444Y156916D01*
X241379Y156855D01*
X241312Y156796D01*
X241243Y156740D01*
X241171Y156687D01*
X241096Y156637D01*
X241020Y156591D01*
X240942Y156548D01*
X240862Y156509D01*
X240780Y156473D01*
X240697Y156440D01*
X240612Y156412D01*
X240527Y156387D01*
X240440Y156365D01*
X240352Y156348D01*
X240264Y156335D01*
X240175Y156325D01*
X240086Y156319D01*
X239997Y156317D01*
X239908Y156319D01*
X239819Y156325D01*
X239730Y156335D01*
X239642Y156348D01*
X239554Y156365D01*
X239467Y156387D01*
X239382Y156412D01*
X239297Y156440D01*
X239214Y156473D01*
X239132Y156509D01*
X239052Y156548D01*
X238974Y156591D01*
X238898Y156637D01*
X238823Y156687D01*
X238751Y156740D01*
X238682Y156796D01*
X238615Y156855D01*
X238550Y156916D01*
X238489Y156981D01*
X238430Y157048D01*
X238374Y157117D01*
X238321Y157189D01*
X238271Y157264D01*
X238225Y157340D01*
X238182Y157418D01*
X238143Y157498D01*
X238107Y157580D01*
X238074Y157663D01*
X238046Y157748D01*
X238021Y157833D01*
X237999Y157920D01*
X237982Y158008D01*
X237969Y158096D01*
X237959Y158185D01*
X237953Y158274D01*
X237951Y158363D01*
X245266Y162046D02*
X247312Y163683D01*
X247312Y156317D01*
X245266Y156317D02*
X249358Y156317D01*
X252581Y156317D02*
X254627Y156317D01*
X254716Y156319D01*
X254805Y156325D01*
X254894Y156335D01*
X254982Y156348D01*
X255070Y156365D01*
X255157Y156387D01*
X255242Y156412D01*
X255327Y156440D01*
X255410Y156473D01*
X255492Y156509D01*
X255572Y156548D01*
X255650Y156591D01*
X255726Y156637D01*
X255801Y156687D01*
X255873Y156740D01*
X255942Y156796D01*
X256009Y156855D01*
X256074Y156916D01*
X256135Y156981D01*
X256194Y157048D01*
X256250Y157117D01*
X256303Y157189D01*
X256353Y157264D01*
X256399Y157340D01*
X256442Y157418D01*
X256481Y157498D01*
X256517Y157580D01*
X256550Y157663D01*
X256578Y157748D01*
X256603Y157833D01*
X256625Y157920D01*
X256642Y158008D01*
X256655Y158096D01*
X256665Y158185D01*
X256671Y158274D01*
X256673Y158363D01*
X256671Y158452D01*
X256665Y158541D01*
X256655Y158630D01*
X256642Y158718D01*
X256625Y158806D01*
X256603Y158893D01*
X256578Y158978D01*
X256550Y159063D01*
X256517Y159146D01*
X256481Y159228D01*
X256442Y159308D01*
X256399Y159386D01*
X256353Y159462D01*
X256303Y159537D01*
X256250Y159609D01*
X256194Y159678D01*
X256135Y159745D01*
X256074Y159810D01*
X256009Y159871D01*
X255942Y159930D01*
X255873Y159986D01*
X255801Y160039D01*
X255726Y160089D01*
X255650Y160135D01*
X255572Y160178D01*
X255492Y160217D01*
X255410Y160253D01*
X255327Y160286D01*
X255242Y160314D01*
X255157Y160339D01*
X255070Y160361D01*
X254982Y160378D01*
X254894Y160391D01*
X254805Y160401D01*
X254716Y160407D01*
X254627Y160409D01*
X255037Y163683D02*
X252581Y163683D01*
X255037Y163683D02*
X255116Y163681D01*
X255195Y163675D01*
X255274Y163666D01*
X255352Y163653D01*
X255429Y163635D01*
X255505Y163615D01*
X255580Y163590D01*
X255654Y163562D01*
X255727Y163531D01*
X255798Y163495D01*
X255867Y163457D01*
X255934Y163415D01*
X255999Y163370D01*
X256062Y163322D01*
X256123Y163271D01*
X256180Y163217D01*
X256236Y163161D01*
X256288Y163102D01*
X256338Y163040D01*
X256384Y162976D01*
X256428Y162910D01*
X256468Y162842D01*
X256504Y162772D01*
X256538Y162700D01*
X256568Y162626D01*
X256594Y162552D01*
X256617Y162476D01*
X256635Y162399D01*
X256651Y162322D01*
X256662Y162243D01*
X256670Y162165D01*
X256674Y162086D01*
X256674Y162006D01*
X256670Y161927D01*
X256662Y161849D01*
X256651Y161770D01*
X256635Y161693D01*
X256617Y161616D01*
X256594Y161540D01*
X256568Y161466D01*
X256538Y161392D01*
X256504Y161320D01*
X256468Y161250D01*
X256428Y161182D01*
X256384Y161116D01*
X256338Y161052D01*
X256288Y160990D01*
X256236Y160931D01*
X256180Y160875D01*
X256123Y160821D01*
X256062Y160770D01*
X255999Y160722D01*
X255934Y160677D01*
X255867Y160635D01*
X255798Y160597D01*
X255727Y160561D01*
X255654Y160530D01*
X255580Y160502D01*
X255505Y160477D01*
X255429Y160457D01*
X255352Y160439D01*
X255274Y160426D01*
X255195Y160417D01*
X255116Y160411D01*
X255037Y160409D01*
X253400Y160409D01*
X37455Y236682D02*
X32545Y236682D01*
X32045Y134182D02*
X36955Y134182D01*
X36955Y166682D02*
X32045Y166682D01*
X34500Y169137D02*
X34500Y164226D01*
X32045Y61182D02*
X36955Y61182D01*
X34500Y63637D02*
X34500Y58726D01*
D11*
X364850Y87300D02*
X371200Y93650D01*
X364850Y87300D02*
X352150Y87300D01*
X345800Y93650D01*
X345800Y106350D01*
X352150Y112700D01*
X364850Y112700D01*
X371200Y106350D01*
X402950Y87300D02*
X415650Y87300D01*
X402950Y87300D02*
X396600Y93650D01*
X396600Y106350D01*
X402950Y112700D01*
X396600Y93650D02*
X390250Y87300D01*
X377550Y87300D01*
X371200Y93650D01*
X371200Y106350D01*
X377550Y112700D01*
X390250Y112700D01*
X396600Y106350D01*
X422000Y106350D02*
X422000Y93650D01*
X415650Y87300D01*
X422000Y106350D02*
X415650Y112700D01*
X402950Y112700D01*
X339450Y87300D02*
X326750Y87300D01*
X320400Y93650D01*
X320400Y106350D01*
X326750Y112700D01*
X345800Y93650D02*
X339450Y87300D01*
X345800Y106350D02*
X339450Y112700D01*
X326750Y112700D01*
D12*
X392070Y117347D02*
X392070Y128777D01*
X397150Y128777D01*
X397150Y123697D02*
X392070Y123697D01*
X403983Y128777D02*
X403983Y117347D01*
X400808Y128777D02*
X407158Y128777D01*
X411857Y128777D02*
X411857Y117347D01*
X411857Y128777D02*
X415032Y128777D01*
X415143Y128775D01*
X415253Y128769D01*
X415364Y128760D01*
X415474Y128746D01*
X415583Y128729D01*
X415692Y128708D01*
X415800Y128683D01*
X415907Y128654D01*
X416013Y128622D01*
X416118Y128586D01*
X416221Y128546D01*
X416323Y128503D01*
X416424Y128456D01*
X416523Y128405D01*
X416620Y128352D01*
X416714Y128295D01*
X416807Y128234D01*
X416898Y128171D01*
X416987Y128104D01*
X417073Y128034D01*
X417156Y127961D01*
X417238Y127886D01*
X417316Y127808D01*
X417391Y127726D01*
X417464Y127643D01*
X417534Y127557D01*
X417601Y127468D01*
X417664Y127377D01*
X417725Y127284D01*
X417782Y127190D01*
X417835Y127093D01*
X417886Y126994D01*
X417933Y126893D01*
X417976Y126791D01*
X418016Y126688D01*
X418052Y126583D01*
X418084Y126477D01*
X418113Y126370D01*
X418138Y126262D01*
X418159Y126153D01*
X418176Y126044D01*
X418190Y125934D01*
X418199Y125823D01*
X418205Y125713D01*
X418207Y125602D01*
X418207Y120522D01*
X418205Y120411D01*
X418199Y120301D01*
X418190Y120190D01*
X418176Y120080D01*
X418159Y119971D01*
X418138Y119862D01*
X418113Y119754D01*
X418084Y119647D01*
X418052Y119541D01*
X418016Y119436D01*
X417976Y119333D01*
X417933Y119231D01*
X417886Y119130D01*
X417835Y119031D01*
X417782Y118934D01*
X417725Y118840D01*
X417664Y118747D01*
X417601Y118656D01*
X417534Y118567D01*
X417464Y118481D01*
X417391Y118398D01*
X417316Y118316D01*
X417238Y118238D01*
X417156Y118163D01*
X417073Y118090D01*
X416987Y118020D01*
X416898Y117953D01*
X416807Y117890D01*
X416714Y117829D01*
X416620Y117772D01*
X416523Y117719D01*
X416424Y117668D01*
X416323Y117621D01*
X416221Y117578D01*
X416118Y117538D01*
X416013Y117502D01*
X415907Y117470D01*
X415800Y117441D01*
X415692Y117416D01*
X415583Y117395D01*
X415474Y117378D01*
X415364Y117364D01*
X415253Y117355D01*
X415143Y117349D01*
X415032Y117347D01*
X411857Y117347D01*
X424557Y117347D02*
X424557Y128777D01*
X423287Y117347D02*
X425827Y117347D01*
X425827Y128777D02*
X423287Y128777D01*
D11*
X371700Y207450D02*
X378050Y213800D01*
X390750Y213800D01*
X397100Y207450D01*
X397100Y194750D01*
X390750Y188400D01*
X378050Y188400D01*
X371700Y194750D01*
X339950Y213800D02*
X327250Y213800D01*
X339950Y213800D02*
X346300Y207450D01*
X346300Y194750D01*
X339950Y188400D01*
X346300Y207450D02*
X352650Y213800D01*
X365350Y213800D01*
X371700Y207450D01*
X371700Y194750D01*
X365350Y188400D01*
X352650Y188400D01*
X346300Y194750D01*
X320900Y194750D02*
X320900Y207450D01*
X327250Y213800D01*
X320900Y194750D02*
X327250Y188400D01*
X339950Y188400D01*
X403450Y213800D02*
X416150Y213800D01*
X422500Y207450D01*
X422500Y194750D01*
X416150Y188400D01*
X397100Y207450D02*
X403450Y213800D01*
X397100Y194750D02*
X403450Y188400D01*
X416150Y188400D01*
D12*
X379543Y220023D02*
X379543Y231453D01*
X378273Y220023D02*
X380813Y220023D01*
X380813Y231453D02*
X378273Y231453D01*
X389005Y231454D02*
X389109Y231452D01*
X389214Y231446D01*
X389318Y231437D01*
X389421Y231424D01*
X389524Y231406D01*
X389626Y231386D01*
X389728Y231361D01*
X389828Y231333D01*
X389928Y231301D01*
X390026Y231265D01*
X390123Y231226D01*
X390218Y231184D01*
X390312Y231138D01*
X390404Y231088D01*
X390494Y231036D01*
X390582Y230980D01*
X390668Y230920D01*
X390752Y230858D01*
X390833Y230793D01*
X390912Y230725D01*
X390989Y230653D01*
X391062Y230580D01*
X391134Y230503D01*
X391202Y230424D01*
X391267Y230343D01*
X391329Y230259D01*
X391389Y230173D01*
X391445Y230085D01*
X391497Y229995D01*
X391547Y229903D01*
X391593Y229809D01*
X391635Y229714D01*
X391674Y229617D01*
X391710Y229519D01*
X391742Y229419D01*
X391770Y229319D01*
X391795Y229217D01*
X391815Y229115D01*
X391833Y229012D01*
X391846Y228909D01*
X391855Y228805D01*
X391861Y228700D01*
X391863Y228596D01*
X389005Y231453D02*
X388887Y231451D01*
X388768Y231445D01*
X388650Y231436D01*
X388533Y231423D01*
X388416Y231405D01*
X388299Y231385D01*
X388183Y231360D01*
X388068Y231332D01*
X387955Y231299D01*
X387842Y231264D01*
X387730Y231224D01*
X387620Y231182D01*
X387511Y231135D01*
X387403Y231085D01*
X387298Y231032D01*
X387194Y230975D01*
X387092Y230915D01*
X386992Y230852D01*
X386894Y230785D01*
X386798Y230716D01*
X386705Y230643D01*
X386614Y230567D01*
X386525Y230489D01*
X386439Y230407D01*
X386356Y230323D01*
X386275Y230237D01*
X386198Y230147D01*
X386123Y230056D01*
X386051Y229962D01*
X385982Y229865D01*
X385917Y229767D01*
X385854Y229666D01*
X385795Y229563D01*
X385739Y229459D01*
X385687Y229353D01*
X385638Y229245D01*
X385593Y229136D01*
X385551Y229025D01*
X385513Y228913D01*
X390910Y226374D02*
X390986Y226449D01*
X391061Y226528D01*
X391132Y226609D01*
X391201Y226693D01*
X391266Y226779D01*
X391328Y226867D01*
X391388Y226957D01*
X391444Y227049D01*
X391497Y227144D01*
X391546Y227240D01*
X391592Y227338D01*
X391635Y227437D01*
X391674Y227538D01*
X391709Y227640D01*
X391741Y227743D01*
X391769Y227847D01*
X391794Y227952D01*
X391815Y228059D01*
X391832Y228165D01*
X391845Y228272D01*
X391854Y228380D01*
X391860Y228488D01*
X391862Y228596D01*
X390910Y226373D02*
X385512Y220023D01*
X391862Y220023D01*
X399445Y220023D02*
X401985Y220023D01*
X399445Y220023D02*
X399345Y220025D01*
X399246Y220031D01*
X399146Y220041D01*
X399048Y220054D01*
X398949Y220072D01*
X398852Y220093D01*
X398756Y220118D01*
X398660Y220147D01*
X398566Y220180D01*
X398473Y220216D01*
X398382Y220256D01*
X398292Y220300D01*
X398204Y220347D01*
X398118Y220397D01*
X398034Y220451D01*
X397952Y220508D01*
X397873Y220568D01*
X397795Y220632D01*
X397721Y220698D01*
X397649Y220767D01*
X397580Y220839D01*
X397514Y220913D01*
X397450Y220991D01*
X397390Y221070D01*
X397333Y221152D01*
X397279Y221236D01*
X397229Y221322D01*
X397182Y221410D01*
X397138Y221500D01*
X397098Y221591D01*
X397062Y221684D01*
X397029Y221778D01*
X397000Y221874D01*
X396975Y221970D01*
X396954Y222067D01*
X396936Y222166D01*
X396923Y222264D01*
X396913Y222364D01*
X396907Y222463D01*
X396905Y222563D01*
X396905Y228913D01*
X396907Y229013D01*
X396913Y229112D01*
X396923Y229212D01*
X396936Y229310D01*
X396954Y229409D01*
X396975Y229506D01*
X397000Y229602D01*
X397029Y229698D01*
X397062Y229792D01*
X397098Y229885D01*
X397138Y229976D01*
X397182Y230066D01*
X397229Y230154D01*
X397279Y230240D01*
X397333Y230324D01*
X397390Y230406D01*
X397450Y230485D01*
X397514Y230563D01*
X397580Y230637D01*
X397649Y230709D01*
X397721Y230778D01*
X397795Y230844D01*
X397873Y230908D01*
X397952Y230968D01*
X398034Y231025D01*
X398118Y231079D01*
X398204Y231129D01*
X398292Y231176D01*
X398382Y231220D01*
X398473Y231260D01*
X398566Y231296D01*
X398660Y231329D01*
X398756Y231358D01*
X398852Y231383D01*
X398949Y231404D01*
X399048Y231422D01*
X399146Y231435D01*
X399246Y231445D01*
X399345Y231451D01*
X399445Y231453D01*
X401985Y231453D01*
X405959Y218753D02*
X411039Y218753D01*
X415611Y228913D02*
X418786Y231453D01*
X418786Y220023D01*
X415611Y220023D02*
X421961Y220023D01*
D11*
X378150Y159900D02*
X371800Y153550D01*
X378150Y159900D02*
X390850Y159900D01*
X397200Y153550D01*
X397200Y140850D01*
X390850Y134500D01*
X378150Y134500D01*
X371800Y140850D01*
X340050Y159900D02*
X327350Y159900D01*
X340050Y159900D02*
X346400Y153550D01*
X346400Y140850D01*
X340050Y134500D01*
X346400Y153550D02*
X352750Y159900D01*
X365450Y159900D01*
X371800Y153550D01*
X371800Y140850D01*
X365450Y134500D01*
X352750Y134500D01*
X346400Y140850D01*
X321000Y140850D02*
X321000Y153550D01*
X327350Y159900D01*
X321000Y140850D02*
X327350Y134500D01*
X340050Y134500D01*
X403550Y159900D02*
X416250Y159900D01*
X422600Y153550D01*
X422600Y140850D01*
X416250Y134500D01*
X397200Y153550D02*
X403550Y159900D01*
X397200Y140850D02*
X403550Y134500D01*
X416250Y134500D01*
D12*
X379643Y166123D02*
X379643Y177553D01*
X378373Y166123D02*
X380913Y166123D01*
X380913Y177553D02*
X378373Y177553D01*
X389105Y177554D02*
X389209Y177552D01*
X389314Y177546D01*
X389418Y177537D01*
X389521Y177524D01*
X389624Y177506D01*
X389726Y177486D01*
X389828Y177461D01*
X389928Y177433D01*
X390028Y177401D01*
X390126Y177365D01*
X390223Y177326D01*
X390318Y177284D01*
X390412Y177238D01*
X390504Y177188D01*
X390594Y177136D01*
X390682Y177080D01*
X390768Y177020D01*
X390852Y176958D01*
X390933Y176893D01*
X391012Y176825D01*
X391089Y176753D01*
X391162Y176680D01*
X391234Y176603D01*
X391302Y176524D01*
X391367Y176443D01*
X391429Y176359D01*
X391489Y176273D01*
X391545Y176185D01*
X391597Y176095D01*
X391647Y176003D01*
X391693Y175909D01*
X391735Y175814D01*
X391774Y175717D01*
X391810Y175619D01*
X391842Y175519D01*
X391870Y175419D01*
X391895Y175317D01*
X391915Y175215D01*
X391933Y175112D01*
X391946Y175009D01*
X391955Y174905D01*
X391961Y174800D01*
X391963Y174696D01*
X389105Y177553D02*
X388987Y177551D01*
X388868Y177545D01*
X388750Y177536D01*
X388633Y177523D01*
X388516Y177505D01*
X388399Y177485D01*
X388283Y177460D01*
X388168Y177432D01*
X388055Y177399D01*
X387942Y177364D01*
X387830Y177324D01*
X387720Y177282D01*
X387611Y177235D01*
X387503Y177185D01*
X387398Y177132D01*
X387294Y177075D01*
X387192Y177015D01*
X387092Y176952D01*
X386994Y176885D01*
X386898Y176816D01*
X386805Y176743D01*
X386714Y176667D01*
X386625Y176589D01*
X386539Y176507D01*
X386456Y176423D01*
X386375Y176337D01*
X386298Y176247D01*
X386223Y176156D01*
X386151Y176062D01*
X386082Y175965D01*
X386017Y175867D01*
X385954Y175766D01*
X385895Y175663D01*
X385839Y175559D01*
X385787Y175453D01*
X385738Y175345D01*
X385693Y175236D01*
X385651Y175125D01*
X385613Y175013D01*
X391010Y172474D02*
X391086Y172549D01*
X391161Y172628D01*
X391232Y172709D01*
X391301Y172793D01*
X391366Y172879D01*
X391428Y172967D01*
X391488Y173057D01*
X391544Y173149D01*
X391597Y173244D01*
X391646Y173340D01*
X391692Y173438D01*
X391735Y173537D01*
X391774Y173638D01*
X391809Y173740D01*
X391841Y173843D01*
X391869Y173947D01*
X391894Y174052D01*
X391915Y174159D01*
X391932Y174265D01*
X391945Y174372D01*
X391954Y174480D01*
X391960Y174588D01*
X391962Y174696D01*
X391010Y172473D02*
X385612Y166123D01*
X391962Y166123D01*
X399545Y166123D02*
X402085Y166123D01*
X399545Y166123D02*
X399445Y166125D01*
X399346Y166131D01*
X399246Y166141D01*
X399148Y166154D01*
X399049Y166172D01*
X398952Y166193D01*
X398856Y166218D01*
X398760Y166247D01*
X398666Y166280D01*
X398573Y166316D01*
X398482Y166356D01*
X398392Y166400D01*
X398304Y166447D01*
X398218Y166497D01*
X398134Y166551D01*
X398052Y166608D01*
X397973Y166668D01*
X397895Y166732D01*
X397821Y166798D01*
X397749Y166867D01*
X397680Y166939D01*
X397614Y167013D01*
X397550Y167091D01*
X397490Y167170D01*
X397433Y167252D01*
X397379Y167336D01*
X397329Y167422D01*
X397282Y167510D01*
X397238Y167600D01*
X397198Y167691D01*
X397162Y167784D01*
X397129Y167878D01*
X397100Y167974D01*
X397075Y168070D01*
X397054Y168167D01*
X397036Y168266D01*
X397023Y168364D01*
X397013Y168464D01*
X397007Y168563D01*
X397005Y168663D01*
X397005Y175013D01*
X397007Y175113D01*
X397013Y175212D01*
X397023Y175312D01*
X397036Y175410D01*
X397054Y175509D01*
X397075Y175606D01*
X397100Y175702D01*
X397129Y175798D01*
X397162Y175892D01*
X397198Y175985D01*
X397238Y176076D01*
X397282Y176166D01*
X397329Y176254D01*
X397379Y176340D01*
X397433Y176424D01*
X397490Y176506D01*
X397550Y176585D01*
X397614Y176663D01*
X397680Y176737D01*
X397749Y176809D01*
X397821Y176878D01*
X397895Y176944D01*
X397973Y177008D01*
X398052Y177068D01*
X398134Y177125D01*
X398218Y177179D01*
X398304Y177229D01*
X398392Y177276D01*
X398482Y177320D01*
X398573Y177360D01*
X398666Y177396D01*
X398760Y177429D01*
X398856Y177458D01*
X398952Y177483D01*
X399049Y177504D01*
X399148Y177522D01*
X399246Y177535D01*
X399346Y177545D01*
X399445Y177551D01*
X399545Y177553D01*
X402085Y177553D01*
X406059Y164853D02*
X411139Y164853D01*
X422061Y174696D02*
X422059Y174800D01*
X422053Y174905D01*
X422044Y175009D01*
X422031Y175112D01*
X422013Y175215D01*
X421993Y175317D01*
X421968Y175419D01*
X421940Y175519D01*
X421908Y175619D01*
X421872Y175717D01*
X421833Y175814D01*
X421791Y175909D01*
X421745Y176003D01*
X421695Y176095D01*
X421643Y176185D01*
X421587Y176273D01*
X421527Y176359D01*
X421465Y176443D01*
X421400Y176524D01*
X421332Y176603D01*
X421260Y176680D01*
X421187Y176753D01*
X421110Y176825D01*
X421031Y176893D01*
X420950Y176958D01*
X420866Y177020D01*
X420780Y177080D01*
X420692Y177136D01*
X420602Y177188D01*
X420510Y177238D01*
X420416Y177284D01*
X420321Y177326D01*
X420224Y177365D01*
X420126Y177401D01*
X420026Y177433D01*
X419926Y177461D01*
X419824Y177486D01*
X419722Y177506D01*
X419619Y177524D01*
X419516Y177537D01*
X419412Y177546D01*
X419307Y177552D01*
X419203Y177554D01*
X419203Y177553D02*
X419085Y177551D01*
X418966Y177545D01*
X418848Y177536D01*
X418731Y177523D01*
X418614Y177505D01*
X418497Y177485D01*
X418381Y177460D01*
X418266Y177432D01*
X418153Y177399D01*
X418040Y177364D01*
X417928Y177324D01*
X417818Y177282D01*
X417709Y177235D01*
X417601Y177185D01*
X417496Y177132D01*
X417392Y177075D01*
X417290Y177015D01*
X417190Y176952D01*
X417092Y176885D01*
X416996Y176816D01*
X416903Y176743D01*
X416812Y176667D01*
X416723Y176589D01*
X416637Y176507D01*
X416554Y176423D01*
X416473Y176337D01*
X416396Y176247D01*
X416321Y176156D01*
X416249Y176062D01*
X416180Y175965D01*
X416115Y175867D01*
X416052Y175766D01*
X415993Y175663D01*
X415937Y175559D01*
X415885Y175453D01*
X415836Y175345D01*
X415791Y175236D01*
X415749Y175125D01*
X415711Y175013D01*
X421109Y172474D02*
X421185Y172549D01*
X421260Y172628D01*
X421331Y172709D01*
X421400Y172793D01*
X421465Y172879D01*
X421527Y172967D01*
X421587Y173057D01*
X421643Y173149D01*
X421696Y173244D01*
X421745Y173340D01*
X421791Y173438D01*
X421834Y173537D01*
X421873Y173638D01*
X421908Y173740D01*
X421940Y173843D01*
X421968Y173947D01*
X421993Y174052D01*
X422014Y174159D01*
X422031Y174265D01*
X422044Y174372D01*
X422053Y174480D01*
X422059Y174588D01*
X422061Y174696D01*
X421108Y172473D02*
X415711Y166123D01*
X422061Y166123D01*
D13*
X2100Y125200D02*
X2100Y70200D01*
X2100Y125200D02*
X9600Y125200D01*
X67100Y125200D01*
X67100Y70200D01*
X9600Y70200D01*
X2100Y70200D01*
X9600Y70200D02*
X9600Y125200D01*
D12*
X-1397Y74744D02*
X-5151Y74744D01*
X-1397Y74743D02*
X-1332Y74741D01*
X-1268Y74735D01*
X-1204Y74725D01*
X-1140Y74712D01*
X-1078Y74694D01*
X-1017Y74673D01*
X-957Y74649D01*
X-899Y74620D01*
X-842Y74588D01*
X-788Y74553D01*
X-736Y74515D01*
X-686Y74473D01*
X-639Y74429D01*
X-595Y74382D01*
X-553Y74332D01*
X-515Y74280D01*
X-480Y74226D01*
X-448Y74169D01*
X-419Y74111D01*
X-395Y74051D01*
X-374Y73990D01*
X-356Y73928D01*
X-343Y73864D01*
X-333Y73800D01*
X-327Y73736D01*
X-325Y73671D01*
X-325Y73135D01*
X-5151Y79166D02*
X-5149Y79234D01*
X-5143Y79301D01*
X-5134Y79368D01*
X-5121Y79435D01*
X-5104Y79500D01*
X-5083Y79565D01*
X-5059Y79628D01*
X-5031Y79690D01*
X-5000Y79750D01*
X-4966Y79808D01*
X-4928Y79864D01*
X-4888Y79919D01*
X-4844Y79970D01*
X-4797Y80019D01*
X-4748Y80066D01*
X-4697Y80110D01*
X-4642Y80150D01*
X-4586Y80188D01*
X-4528Y80222D01*
X-4468Y80253D01*
X-4406Y80281D01*
X-4343Y80305D01*
X-4278Y80326D01*
X-4213Y80343D01*
X-4146Y80356D01*
X-4079Y80365D01*
X-4012Y80371D01*
X-3944Y80373D01*
X-5151Y79166D02*
X-5149Y79088D01*
X-5143Y79010D01*
X-5133Y78933D01*
X-5120Y78856D01*
X-5102Y78780D01*
X-5081Y78705D01*
X-5056Y78631D01*
X-5027Y78559D01*
X-4995Y78488D01*
X-4959Y78419D01*
X-4920Y78351D01*
X-4877Y78286D01*
X-4831Y78223D01*
X-4782Y78162D01*
X-4730Y78104D01*
X-4675Y78049D01*
X-4618Y77996D01*
X-4558Y77947D01*
X-4495Y77900D01*
X-4430Y77857D01*
X-4364Y77817D01*
X-4295Y77780D01*
X-4224Y77747D01*
X-4152Y77717D01*
X-4079Y77691D01*
X-3006Y79971D02*
X-3055Y80020D01*
X-3107Y80067D01*
X-3162Y80110D01*
X-3219Y80151D01*
X-3278Y80189D01*
X-3339Y80223D01*
X-3402Y80254D01*
X-3466Y80282D01*
X-3532Y80306D01*
X-3598Y80326D01*
X-3666Y80343D01*
X-3735Y80356D01*
X-3804Y80365D01*
X-3874Y80371D01*
X-3944Y80373D01*
X-3006Y79971D02*
X-325Y77692D01*
X-325Y80373D01*
D13*
X2100Y172400D02*
X2100Y227400D01*
X9600Y227400D01*
X67100Y227400D01*
X67100Y172400D01*
X9600Y172400D01*
X2100Y172400D01*
X9600Y172400D02*
X9600Y227400D01*
D12*
X-1397Y176944D02*
X-5151Y176944D01*
X-1397Y176943D02*
X-1332Y176941D01*
X-1268Y176935D01*
X-1204Y176925D01*
X-1140Y176912D01*
X-1078Y176894D01*
X-1017Y176873D01*
X-957Y176849D01*
X-899Y176820D01*
X-842Y176788D01*
X-788Y176753D01*
X-736Y176715D01*
X-686Y176673D01*
X-639Y176629D01*
X-595Y176582D01*
X-553Y176532D01*
X-515Y176480D01*
X-480Y176426D01*
X-448Y176369D01*
X-419Y176311D01*
X-395Y176251D01*
X-374Y176190D01*
X-356Y176128D01*
X-343Y176064D01*
X-333Y176000D01*
X-327Y175936D01*
X-325Y175871D01*
X-325Y175335D01*
X-325Y179892D02*
X-325Y181232D01*
X-327Y181303D01*
X-333Y181375D01*
X-342Y181445D01*
X-355Y181515D01*
X-372Y181585D01*
X-393Y181653D01*
X-417Y181720D01*
X-445Y181786D01*
X-476Y181850D01*
X-511Y181913D01*
X-549Y181973D01*
X-590Y182032D01*
X-634Y182088D01*
X-681Y182142D01*
X-730Y182193D01*
X-783Y182241D01*
X-838Y182287D01*
X-895Y182329D01*
X-955Y182369D01*
X-1016Y182405D01*
X-1080Y182438D01*
X-1145Y182467D01*
X-1211Y182493D01*
X-1279Y182516D01*
X-1348Y182535D01*
X-1418Y182550D01*
X-1488Y182561D01*
X-1559Y182569D01*
X-1630Y182573D01*
X-1702Y182573D01*
X-1773Y182569D01*
X-1844Y182561D01*
X-1914Y182550D01*
X-1984Y182535D01*
X-2053Y182516D01*
X-2121Y182493D01*
X-2187Y182467D01*
X-2252Y182438D01*
X-2316Y182405D01*
X-2377Y182369D01*
X-2437Y182329D01*
X-2494Y182287D01*
X-2549Y182241D01*
X-2602Y182193D01*
X-2651Y182142D01*
X-2698Y182088D01*
X-2742Y182032D01*
X-2783Y181973D01*
X-2821Y181913D01*
X-2856Y181850D01*
X-2887Y181786D01*
X-2915Y181720D01*
X-2939Y181653D01*
X-2960Y181585D01*
X-2977Y181515D01*
X-2990Y181445D01*
X-2999Y181375D01*
X-3005Y181303D01*
X-3007Y181232D01*
X-5151Y181500D02*
X-5151Y179892D01*
X-5151Y181500D02*
X-5149Y181565D01*
X-5143Y181629D01*
X-5133Y181693D01*
X-5120Y181757D01*
X-5102Y181819D01*
X-5081Y181880D01*
X-5057Y181940D01*
X-5028Y181998D01*
X-4996Y182055D01*
X-4961Y182109D01*
X-4923Y182161D01*
X-4881Y182211D01*
X-4837Y182258D01*
X-4790Y182302D01*
X-4740Y182344D01*
X-4688Y182382D01*
X-4634Y182417D01*
X-4577Y182449D01*
X-4519Y182478D01*
X-4459Y182502D01*
X-4398Y182523D01*
X-4336Y182541D01*
X-4272Y182554D01*
X-4208Y182564D01*
X-4144Y182570D01*
X-4079Y182572D01*
X-4014Y182570D01*
X-3950Y182564D01*
X-3886Y182554D01*
X-3822Y182541D01*
X-3760Y182523D01*
X-3699Y182502D01*
X-3639Y182478D01*
X-3581Y182449D01*
X-3524Y182417D01*
X-3470Y182382D01*
X-3418Y182344D01*
X-3368Y182302D01*
X-3321Y182258D01*
X-3277Y182211D01*
X-3235Y182161D01*
X-3197Y182109D01*
X-3162Y182055D01*
X-3130Y181998D01*
X-3101Y181940D01*
X-3077Y181880D01*
X-3056Y181819D01*
X-3038Y181757D01*
X-3025Y181693D01*
X-3015Y181629D01*
X-3009Y181565D01*
X-3007Y181500D01*
X-3006Y181500D02*
X-3006Y180428D01*
D11*
X393950Y37900D02*
X406650Y37900D01*
X393950Y37900D02*
X387600Y44250D01*
X387600Y56950D01*
X393950Y63300D01*
X413000Y56950D02*
X413000Y44250D01*
X406650Y37900D01*
X413000Y56950D02*
X406650Y63300D01*
X393950Y63300D01*
X387600Y44250D02*
X381250Y37900D01*
X368550Y37900D01*
X362200Y44250D01*
X362200Y56950D01*
X368550Y63300D01*
X381250Y63300D01*
X387600Y56950D01*
D12*
X376996Y26597D02*
X373821Y26597D01*
X376996Y26597D02*
X377107Y26595D01*
X377217Y26589D01*
X377328Y26580D01*
X377438Y26566D01*
X377547Y26549D01*
X377656Y26528D01*
X377764Y26503D01*
X377871Y26474D01*
X377977Y26442D01*
X378082Y26406D01*
X378185Y26366D01*
X378287Y26323D01*
X378388Y26276D01*
X378487Y26225D01*
X378584Y26172D01*
X378678Y26115D01*
X378771Y26054D01*
X378862Y25991D01*
X378951Y25924D01*
X379037Y25854D01*
X379120Y25781D01*
X379202Y25706D01*
X379280Y25628D01*
X379355Y25546D01*
X379428Y25463D01*
X379498Y25377D01*
X379565Y25288D01*
X379628Y25197D01*
X379689Y25104D01*
X379746Y25009D01*
X379799Y24913D01*
X379850Y24814D01*
X379897Y24713D01*
X379940Y24611D01*
X379980Y24508D01*
X380016Y24403D01*
X380048Y24297D01*
X380077Y24190D01*
X380102Y24082D01*
X380123Y23973D01*
X380140Y23864D01*
X380154Y23754D01*
X380163Y23643D01*
X380169Y23533D01*
X380171Y23422D01*
X380169Y23311D01*
X380163Y23201D01*
X380154Y23090D01*
X380140Y22980D01*
X380123Y22871D01*
X380102Y22762D01*
X380077Y22654D01*
X380048Y22547D01*
X380016Y22441D01*
X379980Y22336D01*
X379940Y22233D01*
X379897Y22131D01*
X379850Y22030D01*
X379799Y21931D01*
X379746Y21834D01*
X379689Y21740D01*
X379628Y21647D01*
X379565Y21556D01*
X379498Y21467D01*
X379428Y21381D01*
X379355Y21298D01*
X379280Y21216D01*
X379202Y21138D01*
X379120Y21063D01*
X379037Y20990D01*
X378951Y20920D01*
X378862Y20853D01*
X378771Y20790D01*
X378678Y20729D01*
X378584Y20672D01*
X378487Y20619D01*
X378388Y20568D01*
X378287Y20521D01*
X378185Y20478D01*
X378082Y20438D01*
X377977Y20402D01*
X377871Y20370D01*
X377764Y20341D01*
X377656Y20316D01*
X377547Y20295D01*
X377438Y20278D01*
X377328Y20264D01*
X377217Y20255D01*
X377107Y20249D01*
X376996Y20247D01*
X373821Y20247D01*
X373821Y31677D01*
X376996Y31677D01*
X377096Y31675D01*
X377195Y31669D01*
X377295Y31659D01*
X377393Y31646D01*
X377492Y31628D01*
X377589Y31607D01*
X377685Y31582D01*
X377781Y31553D01*
X377875Y31520D01*
X377968Y31484D01*
X378059Y31444D01*
X378149Y31400D01*
X378237Y31353D01*
X378323Y31303D01*
X378407Y31249D01*
X378489Y31192D01*
X378568Y31132D01*
X378646Y31068D01*
X378720Y31002D01*
X378792Y30933D01*
X378861Y30861D01*
X378927Y30787D01*
X378991Y30709D01*
X379051Y30630D01*
X379108Y30548D01*
X379162Y30464D01*
X379212Y30378D01*
X379259Y30290D01*
X379303Y30200D01*
X379343Y30109D01*
X379379Y30016D01*
X379412Y29922D01*
X379441Y29826D01*
X379466Y29730D01*
X379487Y29633D01*
X379505Y29534D01*
X379518Y29436D01*
X379528Y29336D01*
X379534Y29237D01*
X379536Y29137D01*
X379534Y29037D01*
X379528Y28938D01*
X379518Y28838D01*
X379505Y28740D01*
X379487Y28641D01*
X379466Y28544D01*
X379441Y28448D01*
X379412Y28352D01*
X379379Y28258D01*
X379343Y28165D01*
X379303Y28074D01*
X379259Y27984D01*
X379212Y27896D01*
X379162Y27810D01*
X379108Y27726D01*
X379051Y27644D01*
X378991Y27565D01*
X378927Y27487D01*
X378861Y27413D01*
X378792Y27341D01*
X378720Y27272D01*
X378646Y27206D01*
X378568Y27142D01*
X378489Y27082D01*
X378407Y27025D01*
X378323Y26971D01*
X378237Y26921D01*
X378149Y26874D01*
X378059Y26830D01*
X377968Y26790D01*
X377875Y26754D01*
X377781Y26721D01*
X377685Y26692D01*
X377589Y26667D01*
X377492Y26646D01*
X377393Y26628D01*
X377295Y26615D01*
X377195Y26605D01*
X377096Y26599D01*
X376996Y26597D01*
X384679Y28502D02*
X384679Y23422D01*
X384679Y28502D02*
X384681Y28613D01*
X384687Y28723D01*
X384696Y28834D01*
X384710Y28944D01*
X384727Y29053D01*
X384748Y29162D01*
X384773Y29270D01*
X384802Y29377D01*
X384834Y29483D01*
X384870Y29588D01*
X384910Y29691D01*
X384953Y29793D01*
X385000Y29894D01*
X385051Y29993D01*
X385104Y30089D01*
X385161Y30184D01*
X385222Y30277D01*
X385285Y30368D01*
X385352Y30457D01*
X385422Y30543D01*
X385495Y30626D01*
X385570Y30708D01*
X385648Y30786D01*
X385730Y30861D01*
X385813Y30934D01*
X385899Y31004D01*
X385988Y31071D01*
X386079Y31134D01*
X386172Y31195D01*
X386267Y31252D01*
X386363Y31305D01*
X386462Y31356D01*
X386563Y31403D01*
X386665Y31446D01*
X386768Y31486D01*
X386873Y31522D01*
X386979Y31554D01*
X387086Y31583D01*
X387194Y31608D01*
X387303Y31629D01*
X387412Y31646D01*
X387522Y31660D01*
X387633Y31669D01*
X387743Y31675D01*
X387854Y31677D01*
X387965Y31675D01*
X388075Y31669D01*
X388186Y31660D01*
X388296Y31646D01*
X388405Y31629D01*
X388514Y31608D01*
X388622Y31583D01*
X388729Y31554D01*
X388835Y31522D01*
X388940Y31486D01*
X389043Y31446D01*
X389145Y31403D01*
X389246Y31356D01*
X389345Y31305D01*
X389442Y31252D01*
X389536Y31195D01*
X389629Y31134D01*
X389720Y31071D01*
X389809Y31004D01*
X389895Y30934D01*
X389978Y30861D01*
X390060Y30786D01*
X390138Y30708D01*
X390213Y30626D01*
X390286Y30543D01*
X390356Y30457D01*
X390423Y30368D01*
X390486Y30277D01*
X390547Y30184D01*
X390604Y30090D01*
X390657Y29993D01*
X390708Y29894D01*
X390755Y29793D01*
X390798Y29691D01*
X390838Y29588D01*
X390874Y29483D01*
X390906Y29377D01*
X390935Y29270D01*
X390960Y29162D01*
X390981Y29053D01*
X390998Y28944D01*
X391012Y28834D01*
X391021Y28723D01*
X391027Y28613D01*
X391029Y28502D01*
X391029Y23422D01*
X391027Y23311D01*
X391021Y23201D01*
X391012Y23090D01*
X390998Y22980D01*
X390981Y22871D01*
X390960Y22762D01*
X390935Y22654D01*
X390906Y22547D01*
X390874Y22441D01*
X390838Y22336D01*
X390798Y22233D01*
X390755Y22131D01*
X390708Y22030D01*
X390657Y21931D01*
X390604Y21834D01*
X390547Y21740D01*
X390486Y21647D01*
X390423Y21556D01*
X390356Y21467D01*
X390286Y21381D01*
X390213Y21298D01*
X390138Y21216D01*
X390060Y21138D01*
X389978Y21063D01*
X389895Y20990D01*
X389809Y20920D01*
X389720Y20853D01*
X389629Y20790D01*
X389536Y20729D01*
X389441Y20672D01*
X389345Y20619D01*
X389246Y20568D01*
X389145Y20521D01*
X389043Y20478D01*
X388940Y20438D01*
X388835Y20402D01*
X388729Y20370D01*
X388622Y20341D01*
X388514Y20316D01*
X388405Y20295D01*
X388296Y20278D01*
X388186Y20264D01*
X388075Y20255D01*
X387965Y20249D01*
X387854Y20247D01*
X387743Y20249D01*
X387633Y20255D01*
X387522Y20264D01*
X387412Y20278D01*
X387303Y20295D01*
X387194Y20316D01*
X387086Y20341D01*
X386979Y20370D01*
X386873Y20402D01*
X386768Y20438D01*
X386665Y20478D01*
X386563Y20521D01*
X386462Y20568D01*
X386363Y20619D01*
X386267Y20672D01*
X386172Y20729D01*
X386079Y20790D01*
X385988Y20853D01*
X385899Y20920D01*
X385813Y20990D01*
X385730Y21063D01*
X385648Y21138D01*
X385570Y21216D01*
X385495Y21298D01*
X385422Y21381D01*
X385352Y21467D01*
X385285Y21556D01*
X385222Y21647D01*
X385161Y21740D01*
X385104Y21835D01*
X385051Y21931D01*
X385000Y22030D01*
X384953Y22131D01*
X384910Y22233D01*
X384870Y22336D01*
X384834Y22441D01*
X384802Y22547D01*
X384773Y22654D01*
X384748Y22762D01*
X384727Y22871D01*
X384710Y22980D01*
X384696Y23090D01*
X384687Y23201D01*
X384681Y23311D01*
X384679Y23422D01*
X396109Y23422D02*
X396109Y28502D01*
X396111Y28613D01*
X396117Y28723D01*
X396126Y28834D01*
X396140Y28944D01*
X396157Y29053D01*
X396178Y29162D01*
X396203Y29270D01*
X396232Y29377D01*
X396264Y29483D01*
X396300Y29588D01*
X396340Y29691D01*
X396383Y29793D01*
X396430Y29894D01*
X396481Y29993D01*
X396534Y30089D01*
X396591Y30184D01*
X396652Y30277D01*
X396715Y30368D01*
X396782Y30457D01*
X396852Y30543D01*
X396925Y30626D01*
X397000Y30708D01*
X397078Y30786D01*
X397160Y30861D01*
X397243Y30934D01*
X397329Y31004D01*
X397418Y31071D01*
X397509Y31134D01*
X397602Y31195D01*
X397697Y31252D01*
X397793Y31305D01*
X397892Y31356D01*
X397993Y31403D01*
X398095Y31446D01*
X398198Y31486D01*
X398303Y31522D01*
X398409Y31554D01*
X398516Y31583D01*
X398624Y31608D01*
X398733Y31629D01*
X398842Y31646D01*
X398952Y31660D01*
X399063Y31669D01*
X399173Y31675D01*
X399284Y31677D01*
X399395Y31675D01*
X399505Y31669D01*
X399616Y31660D01*
X399726Y31646D01*
X399835Y31629D01*
X399944Y31608D01*
X400052Y31583D01*
X400159Y31554D01*
X400265Y31522D01*
X400370Y31486D01*
X400473Y31446D01*
X400575Y31403D01*
X400676Y31356D01*
X400775Y31305D01*
X400872Y31252D01*
X400966Y31195D01*
X401059Y31134D01*
X401150Y31071D01*
X401239Y31004D01*
X401325Y30934D01*
X401408Y30861D01*
X401490Y30786D01*
X401568Y30708D01*
X401643Y30626D01*
X401716Y30543D01*
X401786Y30457D01*
X401853Y30368D01*
X401916Y30277D01*
X401977Y30184D01*
X402034Y30090D01*
X402087Y29993D01*
X402138Y29894D01*
X402185Y29793D01*
X402228Y29691D01*
X402268Y29588D01*
X402304Y29483D01*
X402336Y29377D01*
X402365Y29270D01*
X402390Y29162D01*
X402411Y29053D01*
X402428Y28944D01*
X402442Y28834D01*
X402451Y28723D01*
X402457Y28613D01*
X402459Y28502D01*
X402459Y23422D01*
X402457Y23311D01*
X402451Y23201D01*
X402442Y23090D01*
X402428Y22980D01*
X402411Y22871D01*
X402390Y22762D01*
X402365Y22654D01*
X402336Y22547D01*
X402304Y22441D01*
X402268Y22336D01*
X402228Y22233D01*
X402185Y22131D01*
X402138Y22030D01*
X402087Y21931D01*
X402034Y21834D01*
X401977Y21740D01*
X401916Y21647D01*
X401853Y21556D01*
X401786Y21467D01*
X401716Y21381D01*
X401643Y21298D01*
X401568Y21216D01*
X401490Y21138D01*
X401408Y21063D01*
X401325Y20990D01*
X401239Y20920D01*
X401150Y20853D01*
X401059Y20790D01*
X400966Y20729D01*
X400871Y20672D01*
X400775Y20619D01*
X400676Y20568D01*
X400575Y20521D01*
X400473Y20478D01*
X400370Y20438D01*
X400265Y20402D01*
X400159Y20370D01*
X400052Y20341D01*
X399944Y20316D01*
X399835Y20295D01*
X399726Y20278D01*
X399616Y20264D01*
X399505Y20255D01*
X399395Y20249D01*
X399284Y20247D01*
X399173Y20249D01*
X399063Y20255D01*
X398952Y20264D01*
X398842Y20278D01*
X398733Y20295D01*
X398624Y20316D01*
X398516Y20341D01*
X398409Y20370D01*
X398303Y20402D01*
X398198Y20438D01*
X398095Y20478D01*
X397993Y20521D01*
X397892Y20568D01*
X397793Y20619D01*
X397697Y20672D01*
X397602Y20729D01*
X397509Y20790D01*
X397418Y20853D01*
X397329Y20920D01*
X397243Y20990D01*
X397160Y21063D01*
X397078Y21138D01*
X397000Y21216D01*
X396925Y21298D01*
X396852Y21381D01*
X396782Y21467D01*
X396715Y21556D01*
X396652Y21647D01*
X396591Y21740D01*
X396534Y21835D01*
X396481Y21931D01*
X396430Y22030D01*
X396383Y22131D01*
X396340Y22233D01*
X396300Y22336D01*
X396264Y22441D01*
X396232Y22547D01*
X396203Y22654D01*
X396178Y22762D01*
X396157Y22871D01*
X396140Y22980D01*
X396126Y23090D01*
X396117Y23201D01*
X396111Y23311D01*
X396109Y23422D01*
X409952Y20247D02*
X409952Y31677D01*
X406777Y31677D02*
X413127Y31677D01*
D14*
X302800Y99200D02*
X302800Y198200D01*
X302800Y99200D02*
X76800Y99200D01*
X76800Y198200D01*
X302800Y198200D01*
D15*
X105637Y150642D02*
X105637Y138958D01*
X110830Y138958D01*
X115520Y138958D02*
X115520Y150642D01*
X118766Y150642D01*
X118879Y150640D01*
X118992Y150634D01*
X119105Y150624D01*
X119218Y150610D01*
X119330Y150593D01*
X119441Y150571D01*
X119551Y150546D01*
X119661Y150516D01*
X119769Y150483D01*
X119876Y150446D01*
X119982Y150406D01*
X120086Y150361D01*
X120189Y150313D01*
X120290Y150262D01*
X120389Y150207D01*
X120486Y150149D01*
X120581Y150087D01*
X120674Y150022D01*
X120764Y149954D01*
X120852Y149883D01*
X120938Y149808D01*
X121021Y149731D01*
X121101Y149651D01*
X121178Y149568D01*
X121253Y149482D01*
X121324Y149394D01*
X121392Y149304D01*
X121457Y149211D01*
X121519Y149116D01*
X121577Y149019D01*
X121632Y148920D01*
X121683Y148819D01*
X121731Y148716D01*
X121776Y148612D01*
X121816Y148506D01*
X121853Y148399D01*
X121886Y148291D01*
X121916Y148181D01*
X121941Y148071D01*
X121963Y147960D01*
X121980Y147848D01*
X121994Y147735D01*
X122004Y147622D01*
X122010Y147509D01*
X122012Y147396D01*
X122011Y147396D02*
X122011Y142204D01*
X122012Y142204D02*
X122010Y142091D01*
X122004Y141978D01*
X121994Y141865D01*
X121980Y141752D01*
X121963Y141640D01*
X121941Y141529D01*
X121916Y141419D01*
X121886Y141309D01*
X121853Y141201D01*
X121816Y141094D01*
X121776Y140988D01*
X121731Y140884D01*
X121683Y140781D01*
X121632Y140680D01*
X121577Y140581D01*
X121519Y140484D01*
X121457Y140389D01*
X121392Y140296D01*
X121324Y140206D01*
X121253Y140118D01*
X121178Y140032D01*
X121101Y139949D01*
X121021Y139869D01*
X120938Y139792D01*
X120852Y139717D01*
X120764Y139646D01*
X120674Y139578D01*
X120581Y139513D01*
X120486Y139451D01*
X120389Y139393D01*
X120290Y139338D01*
X120189Y139287D01*
X120086Y139239D01*
X119982Y139194D01*
X119876Y139154D01*
X119769Y139117D01*
X119661Y139084D01*
X119551Y139054D01*
X119441Y139029D01*
X119330Y139007D01*
X119218Y138990D01*
X119105Y138976D01*
X118992Y138966D01*
X118879Y138960D01*
X118766Y138958D01*
X115520Y138958D01*
X127712Y138958D02*
X127712Y150642D01*
X130958Y150642D01*
X131071Y150640D01*
X131184Y150634D01*
X131297Y150624D01*
X131410Y150610D01*
X131522Y150593D01*
X131633Y150571D01*
X131743Y150546D01*
X131853Y150516D01*
X131961Y150483D01*
X132068Y150446D01*
X132174Y150406D01*
X132278Y150361D01*
X132381Y150313D01*
X132482Y150262D01*
X132581Y150207D01*
X132678Y150149D01*
X132773Y150087D01*
X132866Y150022D01*
X132956Y149954D01*
X133044Y149883D01*
X133130Y149808D01*
X133213Y149731D01*
X133293Y149651D01*
X133370Y149568D01*
X133445Y149482D01*
X133516Y149394D01*
X133584Y149304D01*
X133649Y149211D01*
X133711Y149116D01*
X133769Y149019D01*
X133824Y148920D01*
X133875Y148819D01*
X133923Y148716D01*
X133968Y148612D01*
X134008Y148506D01*
X134045Y148399D01*
X134078Y148291D01*
X134108Y148181D01*
X134133Y148071D01*
X134155Y147960D01*
X134172Y147848D01*
X134186Y147735D01*
X134196Y147622D01*
X134202Y147509D01*
X134204Y147396D01*
X134203Y147396D02*
X134203Y142204D01*
X134204Y142204D02*
X134202Y142091D01*
X134196Y141978D01*
X134186Y141865D01*
X134172Y141752D01*
X134155Y141640D01*
X134133Y141529D01*
X134108Y141419D01*
X134078Y141309D01*
X134045Y141201D01*
X134008Y141094D01*
X133968Y140988D01*
X133923Y140884D01*
X133875Y140781D01*
X133824Y140680D01*
X133769Y140581D01*
X133711Y140484D01*
X133649Y140389D01*
X133584Y140296D01*
X133516Y140206D01*
X133445Y140118D01*
X133370Y140032D01*
X133293Y139949D01*
X133213Y139869D01*
X133130Y139792D01*
X133044Y139717D01*
X132956Y139646D01*
X132866Y139578D01*
X132773Y139513D01*
X132678Y139451D01*
X132581Y139393D01*
X132482Y139338D01*
X132381Y139287D01*
X132278Y139239D01*
X132174Y139194D01*
X132068Y139154D01*
X131961Y139117D01*
X131853Y139084D01*
X131743Y139054D01*
X131633Y139029D01*
X131522Y139007D01*
X131410Y138990D01*
X131297Y138976D01*
X131184Y138966D01*
X131071Y138960D01*
X130958Y138958D01*
X127712Y138958D01*
X139636Y143502D02*
X147425Y143502D01*
X152477Y149344D02*
X152477Y150642D01*
X158968Y150642D01*
X155723Y138958D01*
X163907Y144800D02*
X163910Y145030D01*
X163918Y145260D01*
X163932Y145489D01*
X163951Y145718D01*
X163976Y145947D01*
X164006Y146174D01*
X164041Y146402D01*
X164082Y146628D01*
X164128Y146853D01*
X164180Y147077D01*
X164237Y147299D01*
X164299Y147521D01*
X164367Y147740D01*
X164440Y147958D01*
X164518Y148175D01*
X164601Y148389D01*
X164689Y148601D01*
X164782Y148811D01*
X164881Y149019D01*
X164914Y149109D01*
X164950Y149198D01*
X164990Y149286D01*
X165034Y149371D01*
X165081Y149455D01*
X165131Y149537D01*
X165185Y149617D01*
X165241Y149694D01*
X165301Y149770D01*
X165364Y149843D01*
X165429Y149913D01*
X165498Y149981D01*
X165569Y150045D01*
X165642Y150107D01*
X165718Y150166D01*
X165796Y150222D01*
X165877Y150275D01*
X165959Y150324D01*
X166043Y150370D01*
X166130Y150413D01*
X166217Y150452D01*
X166307Y150488D01*
X166397Y150520D01*
X166489Y150548D01*
X166582Y150573D01*
X166676Y150594D01*
X166770Y150611D01*
X166865Y150625D01*
X166961Y150634D01*
X167057Y150640D01*
X167153Y150642D01*
X167249Y150640D01*
X167345Y150634D01*
X167441Y150625D01*
X167536Y150611D01*
X167630Y150594D01*
X167724Y150573D01*
X167817Y150548D01*
X167909Y150520D01*
X167999Y150488D01*
X168089Y150452D01*
X168176Y150413D01*
X168263Y150370D01*
X168347Y150324D01*
X168429Y150275D01*
X168510Y150222D01*
X168588Y150166D01*
X168664Y150107D01*
X168737Y150045D01*
X168808Y149981D01*
X168877Y149913D01*
X168942Y149843D01*
X169005Y149770D01*
X169065Y149694D01*
X169121Y149617D01*
X169175Y149537D01*
X169225Y149455D01*
X169272Y149371D01*
X169316Y149286D01*
X169356Y149198D01*
X169392Y149109D01*
X169425Y149019D01*
X169524Y148812D01*
X169617Y148602D01*
X169705Y148389D01*
X169788Y148175D01*
X169866Y147959D01*
X169939Y147741D01*
X170007Y147521D01*
X170069Y147300D01*
X170126Y147077D01*
X170178Y146853D01*
X170224Y146628D01*
X170265Y146402D01*
X170300Y146175D01*
X170330Y145947D01*
X170355Y145718D01*
X170374Y145489D01*
X170388Y145260D01*
X170396Y145030D01*
X170399Y144800D01*
X163907Y144800D02*
X163910Y144570D01*
X163918Y144340D01*
X163932Y144111D01*
X163951Y143882D01*
X163976Y143653D01*
X164006Y143425D01*
X164041Y143198D01*
X164082Y142972D01*
X164128Y142747D01*
X164180Y142523D01*
X164237Y142300D01*
X164299Y142079D01*
X164367Y141859D01*
X164440Y141641D01*
X164518Y141425D01*
X164601Y141211D01*
X164689Y140999D01*
X164782Y140788D01*
X164881Y140581D01*
X164914Y140491D01*
X164950Y140402D01*
X164991Y140314D01*
X165034Y140229D01*
X165081Y140145D01*
X165131Y140063D01*
X165185Y139983D01*
X165241Y139906D01*
X165301Y139830D01*
X165364Y139757D01*
X165429Y139687D01*
X165498Y139619D01*
X165569Y139555D01*
X165642Y139493D01*
X165718Y139434D01*
X165796Y139378D01*
X165877Y139325D01*
X165959Y139276D01*
X166043Y139230D01*
X166130Y139187D01*
X166217Y139148D01*
X166307Y139112D01*
X166397Y139080D01*
X166489Y139052D01*
X166582Y139027D01*
X166676Y139006D01*
X166770Y138989D01*
X166865Y138975D01*
X166961Y138966D01*
X167057Y138960D01*
X167153Y138958D01*
X169424Y140581D02*
X169523Y140788D01*
X169616Y140999D01*
X169704Y141211D01*
X169787Y141425D01*
X169865Y141641D01*
X169938Y141859D01*
X170006Y142079D01*
X170068Y142300D01*
X170125Y142523D01*
X170177Y142747D01*
X170223Y142972D01*
X170264Y143198D01*
X170299Y143425D01*
X170329Y143653D01*
X170354Y143882D01*
X170373Y144111D01*
X170387Y144340D01*
X170395Y144570D01*
X170398Y144800D01*
X169425Y140581D02*
X169392Y140491D01*
X169356Y140402D01*
X169316Y140314D01*
X169272Y140229D01*
X169225Y140145D01*
X169175Y140063D01*
X169121Y139983D01*
X169065Y139906D01*
X169005Y139830D01*
X168942Y139757D01*
X168877Y139687D01*
X168808Y139619D01*
X168737Y139555D01*
X168664Y139493D01*
X168588Y139434D01*
X168510Y139378D01*
X168429Y139325D01*
X168347Y139276D01*
X168263Y139230D01*
X168176Y139187D01*
X168089Y139148D01*
X167999Y139112D01*
X167909Y139080D01*
X167817Y139052D01*
X167724Y139027D01*
X167630Y139006D01*
X167536Y138989D01*
X167441Y138975D01*
X167345Y138966D01*
X167249Y138960D01*
X167153Y138958D01*
X164556Y141554D02*
X169749Y148046D01*
X175337Y144800D02*
X175340Y145030D01*
X175348Y145260D01*
X175362Y145489D01*
X175381Y145718D01*
X175406Y145947D01*
X175436Y146174D01*
X175471Y146402D01*
X175512Y146628D01*
X175558Y146853D01*
X175610Y147077D01*
X175667Y147299D01*
X175729Y147521D01*
X175797Y147740D01*
X175870Y147958D01*
X175948Y148175D01*
X176031Y148389D01*
X176119Y148601D01*
X176212Y148811D01*
X176311Y149019D01*
X176310Y149019D02*
X176343Y149109D01*
X176379Y149198D01*
X176419Y149286D01*
X176463Y149371D01*
X176510Y149455D01*
X176560Y149537D01*
X176614Y149617D01*
X176670Y149694D01*
X176730Y149770D01*
X176793Y149843D01*
X176858Y149913D01*
X176927Y149981D01*
X176998Y150045D01*
X177071Y150107D01*
X177147Y150166D01*
X177225Y150222D01*
X177306Y150275D01*
X177388Y150324D01*
X177472Y150370D01*
X177559Y150413D01*
X177646Y150452D01*
X177736Y150488D01*
X177826Y150520D01*
X177918Y150548D01*
X178011Y150573D01*
X178105Y150594D01*
X178199Y150611D01*
X178294Y150625D01*
X178390Y150634D01*
X178486Y150640D01*
X178582Y150642D01*
X178678Y150640D01*
X178774Y150634D01*
X178870Y150625D01*
X178965Y150611D01*
X179059Y150594D01*
X179153Y150573D01*
X179246Y150548D01*
X179338Y150520D01*
X179428Y150488D01*
X179518Y150452D01*
X179605Y150413D01*
X179692Y150370D01*
X179776Y150324D01*
X179858Y150275D01*
X179939Y150222D01*
X180017Y150166D01*
X180093Y150107D01*
X180166Y150045D01*
X180237Y149981D01*
X180306Y149913D01*
X180371Y149843D01*
X180434Y149770D01*
X180494Y149694D01*
X180550Y149617D01*
X180604Y149537D01*
X180654Y149455D01*
X180701Y149371D01*
X180745Y149286D01*
X180785Y149198D01*
X180821Y149109D01*
X180854Y149019D01*
X180855Y149019D02*
X180954Y148812D01*
X181047Y148602D01*
X181135Y148389D01*
X181218Y148175D01*
X181296Y147959D01*
X181369Y147741D01*
X181437Y147521D01*
X181499Y147300D01*
X181556Y147077D01*
X181608Y146853D01*
X181654Y146628D01*
X181695Y146402D01*
X181730Y146175D01*
X181760Y145947D01*
X181785Y145718D01*
X181804Y145489D01*
X181818Y145260D01*
X181826Y145030D01*
X181829Y144800D01*
X175337Y144800D02*
X175340Y144570D01*
X175348Y144340D01*
X175362Y144111D01*
X175381Y143882D01*
X175406Y143653D01*
X175436Y143425D01*
X175471Y143198D01*
X175512Y142972D01*
X175558Y142747D01*
X175610Y142523D01*
X175667Y142300D01*
X175729Y142079D01*
X175797Y141859D01*
X175870Y141641D01*
X175948Y141425D01*
X176031Y141211D01*
X176119Y140999D01*
X176212Y140788D01*
X176311Y140581D01*
X176310Y140581D02*
X176343Y140491D01*
X176379Y140402D01*
X176420Y140314D01*
X176463Y140229D01*
X176510Y140145D01*
X176560Y140063D01*
X176614Y139983D01*
X176670Y139906D01*
X176730Y139830D01*
X176793Y139757D01*
X176858Y139687D01*
X176927Y139619D01*
X176998Y139555D01*
X177071Y139493D01*
X177147Y139434D01*
X177225Y139378D01*
X177306Y139325D01*
X177388Y139276D01*
X177472Y139230D01*
X177559Y139187D01*
X177646Y139148D01*
X177736Y139112D01*
X177826Y139080D01*
X177918Y139052D01*
X178011Y139027D01*
X178105Y139006D01*
X178199Y138989D01*
X178294Y138975D01*
X178390Y138966D01*
X178486Y138960D01*
X178582Y138958D01*
X180854Y140581D02*
X180953Y140788D01*
X181046Y140999D01*
X181134Y141211D01*
X181217Y141425D01*
X181295Y141641D01*
X181368Y141859D01*
X181436Y142079D01*
X181498Y142300D01*
X181555Y142523D01*
X181607Y142747D01*
X181653Y142972D01*
X181694Y143198D01*
X181729Y143425D01*
X181759Y143653D01*
X181784Y143882D01*
X181803Y144111D01*
X181817Y144340D01*
X181825Y144570D01*
X181828Y144800D01*
X180854Y140581D02*
X180821Y140491D01*
X180785Y140402D01*
X180745Y140314D01*
X180701Y140229D01*
X180654Y140145D01*
X180604Y140063D01*
X180550Y139983D01*
X180494Y139906D01*
X180434Y139830D01*
X180371Y139757D01*
X180306Y139687D01*
X180237Y139619D01*
X180166Y139555D01*
X180093Y139493D01*
X180017Y139434D01*
X179939Y139378D01*
X179858Y139325D01*
X179776Y139276D01*
X179692Y139230D01*
X179605Y139187D01*
X179518Y139148D01*
X179428Y139112D01*
X179338Y139080D01*
X179246Y139052D01*
X179153Y139027D01*
X179059Y139006D01*
X178965Y138989D01*
X178870Y138975D01*
X178774Y138966D01*
X178678Y138960D01*
X178582Y138958D01*
X175986Y141554D02*
X181179Y148046D01*
X187171Y150642D02*
X187171Y138958D01*
X192363Y138958D01*
D12*
X437280Y34710D02*
X437280Y255690D01*
X604920Y255690D01*
X604920Y34710D01*
X437280Y34710D01*
D16*
X568090Y75350D02*
X580790Y75350D01*
X467760Y81700D02*
X467760Y69000D01*
X574440Y69000D02*
X574440Y81700D01*
X580790Y215050D02*
X568090Y215050D01*
X467760Y221400D02*
X467760Y208700D01*
X574440Y208700D02*
X574440Y221400D01*
D12*
X514232Y59475D02*
X514232Y45505D01*
X512680Y45505D02*
X515785Y45505D01*
X515785Y59475D02*
X512680Y59475D01*
X521759Y59475D02*
X521759Y45505D01*
X529520Y45505D02*
X521759Y59475D01*
X529520Y59475D02*
X529520Y45505D01*
X503531Y234806D02*
X503531Y241014D01*
X503530Y241014D02*
X503532Y241137D01*
X503538Y241260D01*
X503548Y241383D01*
X503561Y241505D01*
X503579Y241627D01*
X503600Y241748D01*
X503625Y241869D01*
X503654Y241989D01*
X503687Y242107D01*
X503724Y242225D01*
X503764Y242341D01*
X503808Y242456D01*
X503856Y242570D01*
X503907Y242682D01*
X503961Y242792D01*
X504020Y242901D01*
X504081Y243008D01*
X504146Y243112D01*
X504214Y243215D01*
X504286Y243315D01*
X504360Y243413D01*
X504438Y243509D01*
X504519Y243602D01*
X504602Y243692D01*
X504689Y243780D01*
X504778Y243865D01*
X504869Y243947D01*
X504964Y244026D01*
X505061Y244102D01*
X505160Y244175D01*
X505261Y244245D01*
X505365Y244312D01*
X505471Y244375D01*
X505578Y244435D01*
X505688Y244491D01*
X505799Y244544D01*
X505912Y244594D01*
X506026Y244639D01*
X506142Y244682D01*
X506259Y244720D01*
X506377Y244755D01*
X506496Y244786D01*
X506616Y244813D01*
X506737Y244836D01*
X506859Y244855D01*
X506981Y244871D01*
X507103Y244883D01*
X507226Y244891D01*
X507349Y244895D01*
X507473Y244895D01*
X507596Y244891D01*
X507719Y244883D01*
X507841Y244871D01*
X507963Y244855D01*
X508085Y244836D01*
X508206Y244813D01*
X508326Y244786D01*
X508445Y244755D01*
X508563Y244720D01*
X508680Y244682D01*
X508796Y244639D01*
X508910Y244594D01*
X509023Y244544D01*
X509134Y244491D01*
X509244Y244435D01*
X509352Y244375D01*
X509457Y244312D01*
X509561Y244245D01*
X509662Y244175D01*
X509761Y244102D01*
X509858Y244026D01*
X509953Y243947D01*
X510044Y243865D01*
X510133Y243780D01*
X510220Y243692D01*
X510303Y243602D01*
X510384Y243509D01*
X510462Y243413D01*
X510536Y243315D01*
X510608Y243215D01*
X510676Y243112D01*
X510741Y243008D01*
X510802Y242901D01*
X510861Y242792D01*
X510915Y242682D01*
X510966Y242570D01*
X511014Y242456D01*
X511058Y242341D01*
X511098Y242225D01*
X511135Y242107D01*
X511168Y241989D01*
X511197Y241869D01*
X511222Y241748D01*
X511243Y241627D01*
X511261Y241505D01*
X511274Y241383D01*
X511284Y241260D01*
X511290Y241137D01*
X511292Y241014D01*
X511292Y234806D01*
X511290Y234683D01*
X511284Y234560D01*
X511274Y234437D01*
X511261Y234315D01*
X511243Y234193D01*
X511222Y234072D01*
X511197Y233951D01*
X511168Y233831D01*
X511135Y233713D01*
X511098Y233595D01*
X511058Y233479D01*
X511014Y233364D01*
X510966Y233250D01*
X510915Y233138D01*
X510861Y233028D01*
X510802Y232919D01*
X510741Y232812D01*
X510676Y232708D01*
X510608Y232605D01*
X510536Y232505D01*
X510462Y232407D01*
X510384Y232311D01*
X510303Y232218D01*
X510220Y232128D01*
X510133Y232040D01*
X510044Y231955D01*
X509953Y231873D01*
X509858Y231794D01*
X509761Y231718D01*
X509662Y231645D01*
X509561Y231575D01*
X509457Y231508D01*
X509352Y231445D01*
X509244Y231385D01*
X509134Y231329D01*
X509023Y231276D01*
X508910Y231226D01*
X508796Y231181D01*
X508680Y231138D01*
X508563Y231100D01*
X508445Y231065D01*
X508326Y231034D01*
X508206Y231007D01*
X508085Y230984D01*
X507963Y230965D01*
X507841Y230949D01*
X507719Y230937D01*
X507596Y230929D01*
X507473Y230925D01*
X507349Y230925D01*
X507226Y230929D01*
X507103Y230937D01*
X506981Y230949D01*
X506859Y230965D01*
X506737Y230984D01*
X506616Y231007D01*
X506496Y231034D01*
X506377Y231065D01*
X506259Y231100D01*
X506142Y231138D01*
X506026Y231181D01*
X505912Y231226D01*
X505799Y231276D01*
X505688Y231329D01*
X505578Y231385D01*
X505471Y231445D01*
X505365Y231508D01*
X505261Y231575D01*
X505160Y231645D01*
X505061Y231718D01*
X504964Y231794D01*
X504869Y231873D01*
X504778Y231955D01*
X504689Y232040D01*
X504602Y232128D01*
X504519Y232218D01*
X504438Y232311D01*
X504360Y232407D01*
X504286Y232505D01*
X504214Y232605D01*
X504146Y232708D01*
X504081Y232812D01*
X504020Y232919D01*
X503961Y233028D01*
X503907Y233138D01*
X503856Y233250D01*
X503808Y233364D01*
X503764Y233479D01*
X503724Y233595D01*
X503687Y233713D01*
X503654Y233831D01*
X503625Y233951D01*
X503600Y234072D01*
X503579Y234193D01*
X503561Y234315D01*
X503548Y234437D01*
X503538Y234560D01*
X503532Y234683D01*
X503530Y234806D01*
X517676Y234806D02*
X517676Y244895D01*
X517675Y234806D02*
X517677Y234683D01*
X517683Y234560D01*
X517693Y234437D01*
X517706Y234315D01*
X517724Y234193D01*
X517745Y234072D01*
X517770Y233951D01*
X517799Y233831D01*
X517832Y233713D01*
X517869Y233595D01*
X517909Y233479D01*
X517953Y233364D01*
X518001Y233250D01*
X518052Y233138D01*
X518106Y233028D01*
X518165Y232919D01*
X518226Y232812D01*
X518291Y232708D01*
X518359Y232605D01*
X518431Y232505D01*
X518505Y232407D01*
X518583Y232311D01*
X518664Y232218D01*
X518747Y232128D01*
X518834Y232040D01*
X518923Y231955D01*
X519014Y231873D01*
X519109Y231794D01*
X519206Y231718D01*
X519305Y231645D01*
X519406Y231575D01*
X519510Y231508D01*
X519616Y231445D01*
X519723Y231385D01*
X519833Y231329D01*
X519944Y231276D01*
X520057Y231226D01*
X520171Y231181D01*
X520287Y231138D01*
X520404Y231100D01*
X520522Y231065D01*
X520641Y231034D01*
X520761Y231007D01*
X520882Y230984D01*
X521004Y230965D01*
X521126Y230949D01*
X521248Y230937D01*
X521371Y230929D01*
X521494Y230925D01*
X521618Y230925D01*
X521741Y230929D01*
X521864Y230937D01*
X521986Y230949D01*
X522108Y230965D01*
X522230Y230984D01*
X522351Y231007D01*
X522471Y231034D01*
X522590Y231065D01*
X522708Y231100D01*
X522825Y231138D01*
X522941Y231181D01*
X523055Y231226D01*
X523168Y231276D01*
X523279Y231329D01*
X523389Y231385D01*
X523497Y231445D01*
X523602Y231508D01*
X523706Y231575D01*
X523807Y231645D01*
X523906Y231718D01*
X524003Y231794D01*
X524098Y231873D01*
X524189Y231955D01*
X524278Y232040D01*
X524365Y232128D01*
X524448Y232218D01*
X524529Y232311D01*
X524607Y232407D01*
X524681Y232505D01*
X524753Y232605D01*
X524821Y232708D01*
X524886Y232812D01*
X524947Y232919D01*
X525006Y233028D01*
X525060Y233138D01*
X525111Y233250D01*
X525159Y233364D01*
X525203Y233479D01*
X525243Y233595D01*
X525280Y233713D01*
X525313Y233831D01*
X525342Y233951D01*
X525367Y234072D01*
X525388Y234193D01*
X525406Y234315D01*
X525419Y234437D01*
X525429Y234560D01*
X525435Y234683D01*
X525437Y234806D01*
X525437Y244895D01*
X534789Y244895D02*
X534789Y230925D01*
X538669Y244895D02*
X530908Y244895D01*
D15*
X532158Y63539D02*
X543842Y63539D01*
X538649Y67434D02*
X532158Y63539D01*
X538649Y67434D02*
X532158Y71328D01*
X543842Y71328D01*
X543842Y77311D02*
X532158Y77311D01*
X532158Y80557D01*
X532160Y80670D01*
X532166Y80783D01*
X532176Y80896D01*
X532190Y81009D01*
X532207Y81121D01*
X532229Y81232D01*
X532254Y81342D01*
X532284Y81452D01*
X532317Y81560D01*
X532354Y81667D01*
X532394Y81773D01*
X532439Y81877D01*
X532487Y81980D01*
X532538Y82081D01*
X532593Y82180D01*
X532651Y82277D01*
X532713Y82372D01*
X532778Y82465D01*
X532846Y82555D01*
X532917Y82643D01*
X532992Y82729D01*
X533069Y82812D01*
X533149Y82892D01*
X533232Y82969D01*
X533318Y83044D01*
X533406Y83115D01*
X533496Y83183D01*
X533589Y83248D01*
X533684Y83310D01*
X533781Y83368D01*
X533880Y83423D01*
X533981Y83474D01*
X534084Y83522D01*
X534188Y83567D01*
X534294Y83607D01*
X534401Y83644D01*
X534509Y83677D01*
X534619Y83707D01*
X534729Y83732D01*
X534840Y83754D01*
X534952Y83771D01*
X535065Y83785D01*
X535178Y83795D01*
X535291Y83801D01*
X535404Y83803D01*
X535517Y83801D01*
X535630Y83795D01*
X535743Y83785D01*
X535856Y83771D01*
X535968Y83754D01*
X536079Y83732D01*
X536189Y83707D01*
X536299Y83677D01*
X536407Y83644D01*
X536514Y83607D01*
X536620Y83567D01*
X536724Y83522D01*
X536827Y83474D01*
X536928Y83423D01*
X537027Y83368D01*
X537124Y83310D01*
X537219Y83248D01*
X537312Y83183D01*
X537402Y83115D01*
X537490Y83044D01*
X537576Y82969D01*
X537659Y82892D01*
X537739Y82812D01*
X537816Y82729D01*
X537891Y82643D01*
X537962Y82555D01*
X538030Y82465D01*
X538095Y82372D01*
X538157Y82277D01*
X538215Y82180D01*
X538270Y82081D01*
X538321Y81980D01*
X538369Y81877D01*
X538414Y81773D01*
X538454Y81667D01*
X538491Y81560D01*
X538524Y81452D01*
X538554Y81342D01*
X538579Y81232D01*
X538601Y81121D01*
X538618Y81009D01*
X538632Y80896D01*
X538642Y80783D01*
X538648Y80670D01*
X538650Y80557D01*
X538649Y80557D02*
X538649Y77311D01*
X534754Y88191D02*
X532158Y91437D01*
X543842Y91437D01*
X543842Y94682D02*
X543842Y88191D01*
X543842Y99621D02*
X543842Y103516D01*
X543840Y103615D01*
X543834Y103715D01*
X543825Y103814D01*
X543812Y103912D01*
X543795Y104010D01*
X543774Y104108D01*
X543749Y104204D01*
X543721Y104299D01*
X543689Y104393D01*
X543654Y104486D01*
X543615Y104578D01*
X543572Y104668D01*
X543527Y104756D01*
X543477Y104843D01*
X543425Y104927D01*
X543369Y105010D01*
X543311Y105090D01*
X543249Y105168D01*
X543184Y105243D01*
X543116Y105316D01*
X543046Y105386D01*
X542973Y105454D01*
X542898Y105519D01*
X542820Y105581D01*
X542740Y105639D01*
X542657Y105695D01*
X542573Y105747D01*
X542486Y105797D01*
X542398Y105842D01*
X542308Y105885D01*
X542216Y105924D01*
X542123Y105959D01*
X542029Y105991D01*
X541934Y106019D01*
X541838Y106044D01*
X541740Y106065D01*
X541642Y106082D01*
X541544Y106095D01*
X541445Y106104D01*
X541345Y106110D01*
X541246Y106112D01*
X539947Y106112D01*
X539848Y106110D01*
X539748Y106104D01*
X539649Y106095D01*
X539551Y106082D01*
X539453Y106065D01*
X539355Y106044D01*
X539259Y106019D01*
X539164Y105991D01*
X539070Y105959D01*
X538977Y105924D01*
X538885Y105885D01*
X538795Y105842D01*
X538707Y105797D01*
X538620Y105747D01*
X538536Y105695D01*
X538453Y105639D01*
X538373Y105581D01*
X538295Y105519D01*
X538220Y105454D01*
X538147Y105386D01*
X538077Y105316D01*
X538009Y105243D01*
X537944Y105168D01*
X537882Y105090D01*
X537824Y105010D01*
X537768Y104927D01*
X537716Y104843D01*
X537666Y104756D01*
X537621Y104668D01*
X537578Y104578D01*
X537539Y104486D01*
X537504Y104393D01*
X537472Y104299D01*
X537444Y104204D01*
X537419Y104108D01*
X537398Y104010D01*
X537381Y103912D01*
X537368Y103814D01*
X537359Y103715D01*
X537353Y103615D01*
X537351Y103516D01*
X537351Y99621D01*
X532158Y99621D01*
X532158Y106112D01*
X540596Y111051D02*
X540483Y111053D01*
X540370Y111059D01*
X540257Y111069D01*
X540144Y111083D01*
X540032Y111100D01*
X539921Y111122D01*
X539811Y111147D01*
X539701Y111177D01*
X539593Y111210D01*
X539486Y111247D01*
X539380Y111287D01*
X539276Y111332D01*
X539173Y111380D01*
X539072Y111431D01*
X538973Y111486D01*
X538876Y111544D01*
X538781Y111606D01*
X538688Y111671D01*
X538598Y111739D01*
X538510Y111810D01*
X538424Y111885D01*
X538341Y111962D01*
X538261Y112042D01*
X538184Y112125D01*
X538109Y112211D01*
X538038Y112299D01*
X537970Y112389D01*
X537905Y112482D01*
X537843Y112577D01*
X537785Y112674D01*
X537730Y112773D01*
X537679Y112874D01*
X537631Y112977D01*
X537586Y113081D01*
X537546Y113187D01*
X537509Y113294D01*
X537476Y113402D01*
X537446Y113512D01*
X537421Y113622D01*
X537399Y113733D01*
X537382Y113845D01*
X537368Y113958D01*
X537358Y114071D01*
X537352Y114184D01*
X537350Y114297D01*
X537352Y114410D01*
X537358Y114523D01*
X537368Y114636D01*
X537382Y114749D01*
X537399Y114861D01*
X537421Y114972D01*
X537446Y115082D01*
X537476Y115192D01*
X537509Y115300D01*
X537546Y115407D01*
X537586Y115513D01*
X537631Y115617D01*
X537679Y115720D01*
X537730Y115821D01*
X537785Y115920D01*
X537843Y116017D01*
X537905Y116112D01*
X537970Y116205D01*
X538038Y116295D01*
X538109Y116383D01*
X538184Y116469D01*
X538261Y116552D01*
X538341Y116632D01*
X538424Y116709D01*
X538510Y116784D01*
X538598Y116855D01*
X538688Y116923D01*
X538781Y116988D01*
X538876Y117050D01*
X538973Y117108D01*
X539072Y117163D01*
X539173Y117214D01*
X539276Y117262D01*
X539380Y117307D01*
X539486Y117347D01*
X539593Y117384D01*
X539701Y117417D01*
X539811Y117447D01*
X539921Y117472D01*
X540032Y117494D01*
X540144Y117511D01*
X540257Y117525D01*
X540370Y117535D01*
X540483Y117541D01*
X540596Y117543D01*
X540709Y117541D01*
X540822Y117535D01*
X540935Y117525D01*
X541048Y117511D01*
X541160Y117494D01*
X541271Y117472D01*
X541381Y117447D01*
X541491Y117417D01*
X541599Y117384D01*
X541706Y117347D01*
X541812Y117307D01*
X541916Y117262D01*
X542019Y117214D01*
X542120Y117163D01*
X542219Y117108D01*
X542316Y117050D01*
X542411Y116988D01*
X542504Y116923D01*
X542594Y116855D01*
X542682Y116784D01*
X542768Y116709D01*
X542851Y116632D01*
X542931Y116552D01*
X543008Y116469D01*
X543083Y116383D01*
X543154Y116295D01*
X543222Y116205D01*
X543287Y116112D01*
X543349Y116017D01*
X543407Y115920D01*
X543462Y115821D01*
X543513Y115720D01*
X543561Y115617D01*
X543606Y115513D01*
X543646Y115407D01*
X543683Y115300D01*
X543716Y115192D01*
X543746Y115082D01*
X543771Y114972D01*
X543793Y114861D01*
X543810Y114749D01*
X543824Y114636D01*
X543834Y114523D01*
X543840Y114410D01*
X543842Y114297D01*
X543840Y114184D01*
X543834Y114071D01*
X543824Y113958D01*
X543810Y113845D01*
X543793Y113733D01*
X543771Y113622D01*
X543746Y113512D01*
X543716Y113402D01*
X543683Y113294D01*
X543646Y113187D01*
X543606Y113081D01*
X543561Y112977D01*
X543513Y112874D01*
X543462Y112773D01*
X543407Y112674D01*
X543349Y112577D01*
X543287Y112482D01*
X543222Y112389D01*
X543154Y112299D01*
X543083Y112211D01*
X543008Y112125D01*
X542931Y112042D01*
X542851Y111962D01*
X542768Y111885D01*
X542682Y111810D01*
X542594Y111739D01*
X542504Y111671D01*
X542411Y111606D01*
X542316Y111544D01*
X542219Y111486D01*
X542120Y111431D01*
X542019Y111380D01*
X541916Y111332D01*
X541812Y111287D01*
X541706Y111247D01*
X541599Y111210D01*
X541491Y111177D01*
X541381Y111147D01*
X541271Y111122D01*
X541160Y111100D01*
X541048Y111083D01*
X540935Y111069D01*
X540822Y111059D01*
X540709Y111053D01*
X540596Y111051D01*
X534754Y111701D02*
X534653Y111703D01*
X534553Y111709D01*
X534453Y111719D01*
X534353Y111732D01*
X534254Y111750D01*
X534155Y111771D01*
X534058Y111796D01*
X533961Y111825D01*
X533866Y111858D01*
X533772Y111894D01*
X533680Y111934D01*
X533589Y111977D01*
X533500Y112024D01*
X533413Y112074D01*
X533327Y112128D01*
X533244Y112185D01*
X533164Y112245D01*
X533085Y112308D01*
X533009Y112375D01*
X532936Y112444D01*
X532866Y112516D01*
X532798Y112590D01*
X532733Y112667D01*
X532672Y112747D01*
X532613Y112829D01*
X532558Y112913D01*
X532506Y112999D01*
X532457Y113087D01*
X532412Y113177D01*
X532370Y113269D01*
X532332Y113362D01*
X532298Y113457D01*
X532267Y113552D01*
X532240Y113649D01*
X532217Y113747D01*
X532197Y113846D01*
X532182Y113946D01*
X532170Y114046D01*
X532162Y114146D01*
X532158Y114247D01*
X532158Y114347D01*
X532162Y114448D01*
X532170Y114548D01*
X532182Y114648D01*
X532197Y114748D01*
X532217Y114847D01*
X532240Y114945D01*
X532267Y115042D01*
X532298Y115137D01*
X532332Y115232D01*
X532370Y115325D01*
X532412Y115417D01*
X532457Y115507D01*
X532506Y115595D01*
X532558Y115681D01*
X532613Y115765D01*
X532672Y115847D01*
X532733Y115927D01*
X532798Y116004D01*
X532866Y116078D01*
X532936Y116150D01*
X533009Y116219D01*
X533085Y116286D01*
X533164Y116349D01*
X533244Y116409D01*
X533327Y116466D01*
X533413Y116520D01*
X533500Y116570D01*
X533589Y116617D01*
X533680Y116660D01*
X533772Y116700D01*
X533866Y116736D01*
X533961Y116769D01*
X534058Y116798D01*
X534155Y116823D01*
X534254Y116844D01*
X534353Y116862D01*
X534453Y116875D01*
X534553Y116885D01*
X534653Y116891D01*
X534754Y116893D01*
X534855Y116891D01*
X534955Y116885D01*
X535055Y116875D01*
X535155Y116862D01*
X535254Y116844D01*
X535353Y116823D01*
X535450Y116798D01*
X535547Y116769D01*
X535642Y116736D01*
X535736Y116700D01*
X535828Y116660D01*
X535919Y116617D01*
X536008Y116570D01*
X536095Y116520D01*
X536181Y116466D01*
X536264Y116409D01*
X536344Y116349D01*
X536423Y116286D01*
X536499Y116219D01*
X536572Y116150D01*
X536642Y116078D01*
X536710Y116004D01*
X536775Y115927D01*
X536836Y115847D01*
X536895Y115765D01*
X536950Y115681D01*
X537002Y115595D01*
X537051Y115507D01*
X537096Y115417D01*
X537138Y115325D01*
X537176Y115232D01*
X537210Y115137D01*
X537241Y115042D01*
X537268Y114945D01*
X537291Y114847D01*
X537311Y114748D01*
X537326Y114648D01*
X537338Y114548D01*
X537346Y114448D01*
X537350Y114347D01*
X537350Y114247D01*
X537346Y114146D01*
X537338Y114046D01*
X537326Y113946D01*
X537311Y113846D01*
X537291Y113747D01*
X537268Y113649D01*
X537241Y113552D01*
X537210Y113457D01*
X537176Y113362D01*
X537138Y113269D01*
X537096Y113177D01*
X537051Y113087D01*
X537002Y112999D01*
X536950Y112913D01*
X536895Y112829D01*
X536836Y112747D01*
X536775Y112667D01*
X536710Y112590D01*
X536642Y112516D01*
X536572Y112444D01*
X536499Y112375D01*
X536423Y112308D01*
X536344Y112245D01*
X536264Y112185D01*
X536181Y112128D01*
X536095Y112074D01*
X536008Y112024D01*
X535919Y111977D01*
X535828Y111934D01*
X535736Y111894D01*
X535642Y111858D01*
X535547Y111825D01*
X535450Y111796D01*
X535353Y111771D01*
X535254Y111750D01*
X535155Y111732D01*
X535055Y111719D01*
X534955Y111709D01*
X534855Y111703D01*
X534754Y111701D01*
X541246Y122481D02*
X532158Y125077D01*
X541246Y122481D02*
X541246Y128972D01*
X538649Y127025D02*
X543842Y127025D01*
X539298Y134024D02*
X539298Y141813D01*
X532158Y150435D02*
X532160Y150542D01*
X532166Y150648D01*
X532176Y150754D01*
X532189Y150860D01*
X532207Y150966D01*
X532228Y151070D01*
X532253Y151174D01*
X532282Y151277D01*
X532314Y151378D01*
X532351Y151478D01*
X532391Y151577D01*
X532434Y151675D01*
X532481Y151771D01*
X532532Y151865D01*
X532586Y151957D01*
X532643Y152047D01*
X532703Y152135D01*
X532767Y152220D01*
X532834Y152303D01*
X532904Y152384D01*
X532976Y152462D01*
X533052Y152538D01*
X533130Y152610D01*
X533211Y152680D01*
X533294Y152747D01*
X533379Y152811D01*
X533467Y152871D01*
X533557Y152928D01*
X533649Y152982D01*
X533743Y153033D01*
X533839Y153080D01*
X533937Y153123D01*
X534036Y153163D01*
X534136Y153200D01*
X534237Y153232D01*
X534340Y153261D01*
X534444Y153286D01*
X534548Y153307D01*
X534654Y153325D01*
X534760Y153338D01*
X534866Y153348D01*
X534972Y153354D01*
X535079Y153356D01*
X532158Y150435D02*
X532160Y150314D01*
X532166Y150193D01*
X532176Y150073D01*
X532189Y149952D01*
X532207Y149833D01*
X532228Y149713D01*
X532253Y149595D01*
X532282Y149478D01*
X532315Y149361D01*
X532351Y149246D01*
X532392Y149132D01*
X532435Y149019D01*
X532483Y148907D01*
X532534Y148798D01*
X532589Y148690D01*
X532647Y148583D01*
X532708Y148479D01*
X532773Y148377D01*
X532841Y148277D01*
X532912Y148179D01*
X532986Y148083D01*
X533063Y147990D01*
X533144Y147900D01*
X533227Y147812D01*
X533313Y147727D01*
X533402Y147644D01*
X533493Y147565D01*
X533587Y147488D01*
X533683Y147415D01*
X533781Y147345D01*
X533882Y147278D01*
X533985Y147214D01*
X534090Y147154D01*
X534197Y147096D01*
X534305Y147043D01*
X534415Y146993D01*
X534527Y146947D01*
X534640Y146904D01*
X534755Y146865D01*
X537351Y152382D02*
X537273Y152461D01*
X537193Y152537D01*
X537110Y152610D01*
X537024Y152680D01*
X536937Y152747D01*
X536846Y152811D01*
X536754Y152871D01*
X536660Y152929D01*
X536563Y152983D01*
X536465Y153033D01*
X536365Y153080D01*
X536264Y153124D01*
X536161Y153164D01*
X536056Y153200D01*
X535951Y153232D01*
X535844Y153261D01*
X535737Y153286D01*
X535628Y153308D01*
X535519Y153325D01*
X535410Y153339D01*
X535300Y153348D01*
X535189Y153354D01*
X535079Y153356D01*
X537351Y152382D02*
X543842Y146865D01*
X543842Y153356D01*
X541246Y158295D02*
X532158Y160891D01*
X541246Y158295D02*
X541246Y164786D01*
X538649Y162839D02*
X543842Y162839D01*
X543842Y172970D02*
X532158Y169076D01*
X532158Y176865D02*
X543842Y172970D01*
X543842Y183638D02*
X532158Y183638D01*
X532158Y180393D02*
X532158Y186884D01*
X535404Y191061D02*
X540596Y191061D01*
X535404Y191060D02*
X535291Y191062D01*
X535178Y191068D01*
X535065Y191078D01*
X534952Y191092D01*
X534840Y191109D01*
X534729Y191131D01*
X534619Y191156D01*
X534509Y191186D01*
X534401Y191219D01*
X534294Y191256D01*
X534188Y191296D01*
X534084Y191341D01*
X533981Y191389D01*
X533880Y191440D01*
X533781Y191495D01*
X533684Y191553D01*
X533589Y191615D01*
X533496Y191680D01*
X533406Y191748D01*
X533318Y191819D01*
X533232Y191894D01*
X533149Y191971D01*
X533069Y192051D01*
X532992Y192134D01*
X532917Y192220D01*
X532846Y192308D01*
X532778Y192398D01*
X532713Y192491D01*
X532651Y192586D01*
X532593Y192683D01*
X532538Y192782D01*
X532487Y192883D01*
X532439Y192986D01*
X532394Y193090D01*
X532354Y193196D01*
X532317Y193303D01*
X532284Y193411D01*
X532254Y193521D01*
X532229Y193631D01*
X532207Y193742D01*
X532190Y193854D01*
X532176Y193967D01*
X532166Y194080D01*
X532160Y194193D01*
X532158Y194306D01*
X532160Y194419D01*
X532166Y194532D01*
X532176Y194645D01*
X532190Y194758D01*
X532207Y194870D01*
X532229Y194981D01*
X532254Y195091D01*
X532284Y195201D01*
X532317Y195309D01*
X532354Y195416D01*
X532394Y195522D01*
X532439Y195626D01*
X532487Y195729D01*
X532538Y195830D01*
X532593Y195929D01*
X532651Y196026D01*
X532713Y196121D01*
X532778Y196214D01*
X532846Y196304D01*
X532917Y196392D01*
X532992Y196478D01*
X533069Y196561D01*
X533149Y196641D01*
X533232Y196718D01*
X533318Y196793D01*
X533406Y196864D01*
X533496Y196932D01*
X533589Y196997D01*
X533684Y197059D01*
X533781Y197117D01*
X533880Y197172D01*
X533981Y197223D01*
X534084Y197271D01*
X534188Y197316D01*
X534294Y197356D01*
X534401Y197393D01*
X534509Y197426D01*
X534619Y197456D01*
X534729Y197481D01*
X534840Y197503D01*
X534952Y197520D01*
X535065Y197534D01*
X535178Y197544D01*
X535291Y197550D01*
X535404Y197552D01*
X540596Y197552D01*
X540709Y197550D01*
X540822Y197544D01*
X540935Y197534D01*
X541048Y197520D01*
X541160Y197503D01*
X541271Y197481D01*
X541381Y197456D01*
X541491Y197426D01*
X541599Y197393D01*
X541706Y197356D01*
X541812Y197316D01*
X541916Y197271D01*
X542019Y197223D01*
X542120Y197172D01*
X542219Y197117D01*
X542316Y197059D01*
X542411Y196997D01*
X542504Y196932D01*
X542594Y196864D01*
X542682Y196793D01*
X542768Y196718D01*
X542851Y196641D01*
X542931Y196561D01*
X543008Y196478D01*
X543083Y196392D01*
X543154Y196304D01*
X543222Y196214D01*
X543287Y196121D01*
X543349Y196026D01*
X543407Y195929D01*
X543462Y195830D01*
X543513Y195729D01*
X543561Y195626D01*
X543606Y195522D01*
X543646Y195416D01*
X543683Y195309D01*
X543716Y195201D01*
X543746Y195091D01*
X543771Y194981D01*
X543793Y194870D01*
X543810Y194758D01*
X543824Y194645D01*
X543834Y194532D01*
X543840Y194419D01*
X543842Y194306D01*
X543840Y194193D01*
X543834Y194080D01*
X543824Y193967D01*
X543810Y193854D01*
X543793Y193742D01*
X543771Y193631D01*
X543746Y193521D01*
X543716Y193411D01*
X543683Y193303D01*
X543646Y193196D01*
X543606Y193090D01*
X543561Y192986D01*
X543513Y192883D01*
X543462Y192782D01*
X543407Y192683D01*
X543349Y192586D01*
X543287Y192491D01*
X543222Y192398D01*
X543154Y192308D01*
X543083Y192220D01*
X543008Y192134D01*
X542931Y192051D01*
X542851Y191971D01*
X542768Y191894D01*
X542682Y191819D01*
X542594Y191748D01*
X542504Y191680D01*
X542411Y191615D01*
X542316Y191553D01*
X542219Y191495D01*
X542120Y191440D01*
X542019Y191389D01*
X541916Y191341D01*
X541812Y191296D01*
X541706Y191256D01*
X541599Y191219D01*
X541491Y191186D01*
X541381Y191156D01*
X541271Y191131D01*
X541160Y191109D01*
X541048Y191092D01*
X540935Y191078D01*
X540822Y191068D01*
X540709Y191062D01*
X540596Y191060D01*
X543842Y202491D02*
X543842Y206385D01*
X543840Y206484D01*
X543834Y206584D01*
X543825Y206683D01*
X543812Y206781D01*
X543795Y206879D01*
X543774Y206977D01*
X543749Y207073D01*
X543721Y207168D01*
X543689Y207262D01*
X543654Y207355D01*
X543615Y207447D01*
X543572Y207537D01*
X543527Y207625D01*
X543477Y207712D01*
X543425Y207796D01*
X543369Y207879D01*
X543311Y207959D01*
X543249Y208037D01*
X543184Y208112D01*
X543116Y208185D01*
X543046Y208255D01*
X542973Y208323D01*
X542898Y208388D01*
X542820Y208450D01*
X542740Y208508D01*
X542657Y208564D01*
X542573Y208616D01*
X542486Y208666D01*
X542398Y208711D01*
X542308Y208754D01*
X542216Y208793D01*
X542123Y208828D01*
X542029Y208860D01*
X541934Y208888D01*
X541838Y208913D01*
X541740Y208934D01*
X541642Y208951D01*
X541544Y208964D01*
X541445Y208973D01*
X541345Y208979D01*
X541246Y208981D01*
X541246Y208982D02*
X539947Y208982D01*
X539947Y208981D02*
X539848Y208979D01*
X539748Y208973D01*
X539649Y208964D01*
X539551Y208951D01*
X539453Y208934D01*
X539355Y208913D01*
X539259Y208888D01*
X539164Y208860D01*
X539070Y208828D01*
X538977Y208793D01*
X538885Y208754D01*
X538795Y208711D01*
X538707Y208666D01*
X538620Y208616D01*
X538536Y208564D01*
X538453Y208508D01*
X538373Y208450D01*
X538295Y208388D01*
X538220Y208323D01*
X538147Y208255D01*
X538077Y208185D01*
X538009Y208112D01*
X537944Y208037D01*
X537882Y207959D01*
X537824Y207879D01*
X537768Y207796D01*
X537716Y207712D01*
X537666Y207625D01*
X537621Y207537D01*
X537578Y207447D01*
X537539Y207355D01*
X537504Y207262D01*
X537472Y207168D01*
X537444Y207073D01*
X537419Y206977D01*
X537398Y206879D01*
X537381Y206781D01*
X537368Y206683D01*
X537359Y206584D01*
X537353Y206484D01*
X537351Y206385D01*
X537351Y202491D01*
X532158Y202491D01*
X532158Y208982D01*
X532158Y213272D02*
X543842Y217166D01*
X532158Y221061D01*
M02*
