G04 EAGLE Gerber RS-274X export*
G75*
%MOMM*%
%FSLAX34Y34*%
%LPD*%
%INSoldermask Bottom*%
%IPPOS*%
%AMOC8*
5,1,8,0,0,1.08239X$1,22.5*%
G01*
%ADD10C,1.868200*%
%ADD11R,1.868200X1.868200*%
%ADD12C,1.727200*%
%ADD13C,2.203200*%
%ADD14R,1.727200X1.727200*%
%ADD15C,1.511200*%
%ADD16R,1.511200X1.511200*%
%ADD17C,2.203200*%
%ADD18R,2.203200X2.203200*%


D10*
X278800Y261900D03*
X253400Y261900D03*
X228000Y261900D03*
X202600Y261900D03*
X177200Y261900D03*
X151800Y261900D03*
X126400Y261900D03*
D11*
X101000Y261900D03*
X101000Y33300D03*
D10*
X126400Y33300D03*
X151800Y33300D03*
X177200Y33300D03*
X202600Y33300D03*
X228000Y33300D03*
X253400Y33300D03*
X278800Y33300D03*
D12*
X409300Y92380D02*
X409300Y107620D01*
X383900Y107620D02*
X383900Y92380D01*
X358500Y92380D02*
X358500Y107620D01*
X333100Y107620D02*
X333100Y92380D01*
X333600Y193480D02*
X333600Y208720D01*
X359000Y208720D02*
X359000Y193480D01*
X384400Y193480D02*
X384400Y208720D01*
X409800Y208720D02*
X409800Y193480D01*
X333700Y154820D02*
X333700Y139580D01*
X359100Y139580D02*
X359100Y154820D01*
X384500Y154820D02*
X384500Y139580D01*
X409900Y139580D02*
X409900Y154820D01*
D13*
X573400Y162600D02*
X573400Y142600D01*
X634400Y142600D02*
X634400Y162600D01*
X614400Y104600D02*
X594400Y104600D01*
D14*
X34600Y85200D03*
X34600Y110600D03*
X34600Y187400D03*
X34600Y212800D03*
D12*
X400300Y58220D02*
X400300Y42980D01*
X374900Y42980D02*
X374900Y58220D01*
D15*
X278700Y186800D03*
D16*
X278700Y110600D03*
D15*
X100900Y186800D03*
X100900Y110600D03*
X278700Y161400D03*
D17*
X455060Y52490D03*
D18*
X587140Y52490D03*
D17*
X455060Y237910D03*
X480460Y52490D03*
X480460Y237910D03*
D18*
X561740Y52490D03*
X587140Y237910D03*
X561740Y237910D03*
D12*
X512620Y124600D02*
X497380Y124600D01*
X497380Y150000D02*
X512620Y150000D01*
X512620Y175400D02*
X497380Y175400D01*
M02*
